<svg width="19" height="18" viewBox="0 0 19 18" fill="none" xmlns="http://www.w3.org/2000/svg">
<g clip-path="url(#clip0_32_946)">
<rect width="17.3333" height="17.3333" transform="translate(0.932617 0.333008)" fill="white"/>
<path d="M12.444 1.00022C12.444 0.632053 12.8079 0.333008 13.2579 0.333008C13.708 0.333008 14.0719 0.632053 14.0719 1.00022V3.92296C14.0719 4.29112 13.708 4.59017 13.2579 4.59017C12.8079 4.59017 12.444 4.29112 12.444 3.92296V1.00022ZM5.07163 14.9199V13.6631L6.95774 11.7362C7.06459 11.6306 7.16538 11.519 7.25963 11.4019C7.33438 11.3086 7.39872 11.2074 7.45148 11.1C7.4973 11.0055 7.5214 10.9019 7.52202 10.7968C7.52603 10.6984 7.5031 10.6009 7.45572 10.5146C7.41007 10.4394 7.33903 10.3828 7.2554 10.3553C7.1434 10.3191 7.02601 10.3024 6.90836 10.3059H5.16473V9.05046C5.43136 8.9898 5.72901 8.93479 6.05771 8.8826C6.4379 8.82711 6.82182 8.80117 7.20602 8.80501C7.59197 8.78793 7.97702 8.85483 8.33459 9.00109C8.59423 9.11701 8.80317 9.32293 8.92285 9.58084C9.04785 9.87783 9.1075 10.1982 9.09778 10.5203C9.10074 10.7665 9.06504 11.0116 8.99197 11.2467C8.92302 11.4647 8.82173 11.6711 8.69149 11.8589C8.54644 12.063 8.38408 12.2541 8.20621 12.4302L7.16088 13.4995H9.26847V14.9199H5.07163ZM11.5228 14.9693C11.3176 14.9697 11.1127 14.9523 10.9105 14.9171C10.7188 14.8863 10.5346 14.8198 10.3674 14.721C10.2027 14.6183 10.0699 14.4718 9.9837 14.2979C9.87954 14.0714 9.83116 13.8232 9.84263 13.5742V12.7645C9.84316 12.6322 9.86264 12.5006 9.90047 12.3738C9.93723 12.2447 10.0012 12.1249 10.0881 12.0226C10.1811 11.9153 10.308 11.8431 10.4478 11.818C10.3091 11.7518 10.1901 11.6507 10.1022 11.5246C10.0336 11.4163 9.99294 11.2928 9.9837 11.1649C9.97241 11.0337 9.96677 10.8983 9.96677 10.7573V10.0661C9.95291 9.80253 10.0263 9.54176 10.1756 9.32411C10.3132 9.1388 10.5034 8.99921 10.7215 8.9235C10.9537 8.84075 11.1987 8.79922 11.4452 8.80078H12.6048C12.8523 8.79845 13.0983 8.84 13.3313 8.9235C13.548 9.00039 13.737 9.13981 13.8744 9.32411C14.0211 9.54272 14.0925 9.80324 14.0776 10.0661V10.7573C14.0766 10.8337 14.0714 10.91 14.062 10.9858C14.0498 11.0897 14.0276 11.1922 13.9957 11.2919C13.9681 11.3919 13.9201 11.485 13.8547 11.5655C13.7876 11.6425 13.6949 11.6926 13.5937 11.7066C13.6767 11.7208 13.7559 11.7516 13.8267 11.7971C13.8975 11.8427 13.9584 11.9021 14.0056 11.9718C14.0885 12.1002 14.1442 12.2442 14.1693 12.395C14.1913 12.5189 14.2036 12.6443 14.2059 12.7702V13.5785C14.2059 13.9762 14.1326 14.2743 13.9859 14.4728C13.8407 14.6654 13.6342 14.8027 13.4004 14.8621C13.1477 14.9315 12.8866 14.9657 12.6245 14.9637L11.5228 14.9693ZM11.8049 13.6306H12.2281C12.4087 13.6306 12.5173 13.5968 12.5554 13.5291C12.5969 13.444 12.6163 13.3499 12.6118 13.2554V12.8717C12.6148 12.7752 12.5833 12.6807 12.523 12.6051C12.4885 12.5675 12.446 12.5381 12.3986 12.5191C12.3513 12.5 12.3002 12.4918 12.2493 12.4951H11.8077C11.7496 12.4934 11.6916 12.503 11.637 12.5233C11.5891 12.539 11.5462 12.5673 11.5129 12.6051C11.4819 12.6412 11.4579 12.6829 11.4424 12.7279C11.4261 12.7765 11.418 12.8275 11.4184 12.8788V13.2625C11.4109 13.3667 11.4449 13.4696 11.5129 13.5488C11.5983 13.6126 11.7046 13.6418 11.8106 13.6306H11.8049ZM11.8049 11.148H12.2281C12.3005 11.1543 12.3732 11.1391 12.4369 11.1043C12.4798 11.0688 12.5075 11.0184 12.5145 10.9632C12.5257 10.8824 12.5309 10.8008 12.53 10.7192V10.4653C12.53 10.3073 12.499 10.2156 12.4369 10.1832C12.3708 10.1556 12.2998 10.1417 12.2281 10.1423H11.8049C11.7275 10.1382 11.6504 10.1537 11.5806 10.1874C11.5284 10.217 11.503 10.3087 11.503 10.461V10.715C11.503 10.911 11.5256 11.0309 11.5722 11.0775C11.6377 11.13 11.7213 11.1548 11.8049 11.1466V11.148ZM5.10971 1.00022C5.10971 0.632053 5.47368 0.333008 5.92369 0.333008C6.37371 0.333008 6.73767 0.632053 6.73767 1.00022V3.92296C6.73767 4.29112 6.37371 4.59017 5.92369 4.59017C5.47368 4.59017 5.10971 4.29112 5.10971 3.92296V1.00022ZM1.83547 5.80046H17.3617V3.36155C17.3605 3.2522 17.317 3.14755 17.2404 3.06955C17.2021 3.0311 17.1566 3.00058 17.1065 2.97976C17.0564 2.95895 17.0026 2.94823 16.9484 2.94824H15.4629C15.4036 2.94824 15.3449 2.93657 15.2901 2.91388C15.2354 2.8912 15.1856 2.85795 15.1437 2.81603C15.1018 2.77412 15.0685 2.72436 15.0458 2.66959C15.0231 2.61483 15.0115 2.55613 15.0115 2.49685C15.0115 2.43758 15.0231 2.37888 15.0458 2.32411C15.0685 2.26935 15.1018 2.21959 15.1437 2.17767C15.1856 2.13576 15.2354 2.10251 15.2901 2.07982C15.3449 2.05714 15.4036 2.04546 15.4629 2.04546H16.9512C17.2999 2.04658 17.634 2.1856 17.8806 2.43217C18.1272 2.67874 18.2662 3.01284 18.2674 3.36155V16.3503C18.2662 16.699 18.1272 17.0331 17.8806 17.2796C17.634 17.5262 17.2999 17.6652 16.9512 17.6663H2.2488C1.89983 17.6652 1.56549 17.526 1.31886 17.2791C1.07222 17.0323 0.933361 16.6978 0.932617 16.3489L0.932617 3.36155C0.933733 3.01284 1.07276 2.67874 1.31935 2.43217C1.56594 2.1856 1.90007 2.04658 2.2488 2.04546H3.83867C3.89795 2.04546 3.95665 2.05714 4.01142 2.07982C4.06619 2.10251 4.11596 2.13576 4.15788 2.17767C4.19979 2.21959 4.23305 2.26935 4.25573 2.32411C4.27842 2.37888 4.2901 2.43758 4.2901 2.49685C4.2901 2.55613 4.27842 2.61483 4.25573 2.66959C4.23305 2.72436 4.19979 2.77412 4.15788 2.81603C4.11596 2.85795 4.06619 2.8912 4.01142 2.91388C3.95665 2.93657 3.89795 2.94824 3.83867 2.94824H2.2488C2.13945 2.94943 2.0348 2.99291 1.95679 3.06955C1.91833 3.10783 1.88781 3.15334 1.86699 3.20345C1.84617 3.25355 1.83546 3.30728 1.83547 3.36155V5.80046ZM17.3631 6.70464H1.83547V16.3489C1.83666 16.4582 1.88014 16.5628 1.95679 16.6408C1.99507 16.6793 2.04058 16.7098 2.09069 16.7306C2.14081 16.7515 2.19454 16.7622 2.2488 16.7622H16.9498C17.0591 16.761 17.1638 16.7175 17.2418 16.6408C17.2802 16.6026 17.3108 16.5571 17.3316 16.507C17.3524 16.4568 17.3631 16.4031 17.3631 16.3489V6.70464ZM8.05245 2.94824C7.93272 2.94824 7.8179 2.90069 7.73324 2.81603C7.64858 2.73138 7.60102 2.61657 7.60102 2.49685C7.60102 2.37714 7.64858 2.26233 7.73324 2.17767C7.8179 2.09302 7.93272 2.04546 8.05245 2.04546H11.077C11.1967 2.04546 11.3115 2.09302 11.3962 2.17767C11.4809 2.26233 11.5284 2.37714 11.5284 2.49685C11.5284 2.61657 11.4809 2.73138 11.3962 2.81603C11.3115 2.90069 11.1967 2.94824 11.077 2.94824H8.05245Z" fill="#1C5981"/>
</g>
<defs>
<clipPath id="clip0_32_946">
<rect width="17.3333" height="17.3333" fill="white" transform="translate(0.932617 0.333008)"/>
</clipPath>
</defs>
</svg>
