<svg width="27" height="15" viewBox="0 0 27 15" fill="none" xmlns="http://www.w3.org/2000/svg">
<g clip-path="url(#clip0_21_32)">
<path fill-rule="evenodd" clip-rule="evenodd" d="M14.9746 14.3109C14.9746 14.1313 15.1221 13.9902 15.3081 13.9902C15.4941 13.9902 15.6416 14.1377 15.6416 14.3109C15.6416 14.4905 15.4941 14.638 15.3081 14.638C15.1221 14.638 14.9746 14.4969 14.9746 14.3109ZM15.0387 14.3109C15.0387 14.4584 15.1606 14.5739 15.3081 14.5739C15.4556 14.5739 15.5775 14.4584 15.5775 14.3109C15.5775 14.1698 15.4556 14.0544 15.3081 14.0544C15.1542 14.0544 15.0387 14.1698 15.0387 14.3109Z" fill="#E31837"/>
<path fill-rule="evenodd" clip-rule="evenodd" d="M15.4751 14.4964H15.411L15.302 14.3297H15.2378V14.4964H15.1865V14.1309H15.3469C15.3789 14.1309 15.411 14.1309 15.4366 14.1501C15.4623 14.1629 15.4751 14.195 15.4751 14.2271C15.4751 14.2976 15.4238 14.3233 15.3597 14.3297L15.4751 14.4964ZM15.302 14.2848C15.3533 14.2848 15.4302 14.2912 15.4302 14.2271C15.4302 14.1822 15.3853 14.1758 15.3404 14.1758H15.2442V14.2848H15.302Z" fill="#E31837"/>
<path d="M13.6919 14.6376C17.7964 11.123 23.5685 7.69824 26.7303 6.47327C26.2365 6.15902 25.4733 5.71008 24.6203 5.22266C20.5414 6.56947 15.7698 9.57095 11.5049 12.9572C12.2296 13.4767 12.98 14.0603 13.6919 14.6376Z" fill="#E31837"/>
<path d="M11.8133 5.08195C11.204 4.79976 10.5499 4.51757 10.024 4.28027C8.47833 5.04347 6.47093 6.2043 3.9248 8.01288C4.48277 8.3079 5.06639 8.65422 5.69491 9.00696C7.651 7.56394 9.62633 6.18506 11.8133 5.08195Z" fill="#012169"/>
<path d="M15.4681 3.38924C14.7305 2.96596 12.1395 2.0296 10.3566 1.61914C9.8307 1.81796 9.08674 2.10656 8.58008 2.3182C9.21501 2.49778 11.6265 3.13271 13.6787 4.17168C14.2239 3.92797 14.9486 3.6073 15.4681 3.38924Z" fill="#E31837"/>
<path d="M6.72702 3.13281C4.43101 4.19103 2.03881 5.64046 0.730469 6.46779C1.19223 6.67943 1.66683 6.85901 2.31458 7.17968C5.20062 5.22359 7.47097 4.0371 8.37526 3.63947C7.73392 3.42783 7.11182 3.25467 6.72702 3.13281Z" fill="#012169"/>
<path d="M17.1808 2.79883C17.7003 2.63208 18.3224 2.45892 18.8483 2.31141C17.3155 1.66365 15.3979 0.990246 13.6919 0.560547C13.4225 0.631094 12.608 0.861977 12.0244 1.03514C12.6144 1.18265 14.5577 1.63159 17.1808 2.79883Z" fill="#E31837"/>
<path d="M7.54199 10.1357C8.16409 10.5141 8.8375 11.0208 9.47885 11.4505C13.7566 8.13473 17.983 5.55653 22.6264 4.1071C21.9786 3.78001 21.4142 3.49141 20.6959 3.13867C17.9125 3.85056 13.173 5.74893 7.54199 10.1357Z" fill="#E31837"/>
</g>
<defs>
<clipPath id="clip0_21_32">
<rect width="26" height="14.0775" fill="white" transform="translate(0.730469 0.560547)"/>
</clipPath>
</defs>
</svg>
