<svg width="41" height="41" viewBox="0 0 41 41" fill="none" xmlns="http://www.w3.org/2000/svg">
<g clip-path="url(#clip0_21_479)">
<path fill-rule="evenodd" clip-rule="evenodd" d="M34.0214 8.5332C35.9973 8.57692 37.5748 10.1763 37.6065 12.1375L37.6065 28.2621C37.5756 30.1795 36.0671 31.7514 34.1529 31.8614L34.0247 31.8665H7.85803C5.88211 31.8228 4.30462 30.2234 4.27295 28.2622L4.27304 28.1365V12.2632C4.23841 10.2871 5.77402 8.64747 7.73246 8.53809L7.85803 8.5332H34.0214ZM34.0247 10.1999H7.85803C6.79588 10.2427 5.95953 11.1068 5.93901 12.1575L5.9397 12.2632V28.1365C5.90518 29.199 6.70614 30.096 7.75259 30.1929L7.85803 30.1999H34.0214C35.0835 30.157 35.9199 29.2929 35.9404 28.2422L35.9397 28.1365V12.2632C35.9754 11.1666 35.1209 10.2459 34.0247 10.1999ZM15.9397 23.5332V25.1999H9.27304V23.5332H15.9397ZM24.273 23.5332V25.1999H17.6064V23.5332H24.273ZM32.6064 23.5332V25.1999H25.9397V23.5332H32.6064ZM13.3014 11.8665C14.2979 11.8675 15.1054 12.675 15.1064 13.6715V17.5615C15.1054 18.558 14.2979 19.3656 13.3014 19.3665H9.41137C8.41488 19.3656 7.60729 18.558 7.60637 17.5615V13.6715C7.60729 12.675 8.41488 11.8675 9.41137 11.8665H13.3014ZM13.3014 13.5332H9.41137C9.33571 13.535 9.2748 13.5959 9.27304 13.6715V17.5615C9.2748 17.6372 9.33571 17.6981 9.41137 17.6999H13.3014C13.377 17.6981 13.4379 17.6372 13.4397 17.5615V13.6715C13.4379 13.5959 13.377 13.535 13.3014 13.5332Z" fill="black"/>
</g>
<defs>
<clipPath id="clip0_21_479">
<rect width="40" height="40" fill="white" transform="translate(0.939941 0.200195)"/>
</clipPath>
</defs>
</svg>
