<svg width="51" height="56" viewBox="0 0 51 56" fill="none" xmlns="http://www.w3.org/2000/svg">
<g clip-path="url(#clip0_21_412)">
<path d="M49.2465 39.933L42.9013 33.059V28.0357C42.9013 15.6096 36.8204 7.94245 26.5094 7.41368V2.12598H23.8656V7.41368C13.8189 7.94245 7.73808 15.6096 7.73808 28.0357V33.059L1.65723 39.933V47.0714H15.6696C16.7272 52.3591 22.0149 55.7961 27.3026 54.7386C31.2683 53.9454 34.1766 50.7728 34.9697 47.0714H48.9821V39.933H49.2465ZM25.4519 52.3591C22.2793 52.3591 19.371 50.244 18.5779 47.0714H32.3259C31.5327 49.9797 28.6245 52.3591 25.4519 52.3591ZM46.6027 44.4276H4.30108V40.9906L10.3819 34.1166V28.0357C10.3819 16.6672 15.934 10.0575 25.4519 10.0575C34.9697 10.0575 40.2574 16.4028 40.2574 28.0357V34.1166L46.3383 40.9906V44.4276H46.6027Z" fill="#E31837"/>
</g>
<defs>
<clipPath id="clip0_21_412">
<rect width="49.44" height="54.9921" fill="white" transform="translate(0.599609 0.803711)"/>
</clipPath>
</defs>
</svg>
