<svg width="193" height="56" viewBox="0 0 193 56" fill="none" xmlns="http://www.w3.org/2000/svg">
<g clip-path="url(#clip0_21_434)">
<path d="M87.4226 48.0247H85.1717L83.2456 52.0394L81.3659 48.0247H79.0685V55.5667H80.7857V50.415L83.2456 55.5667L85.6822 50.4382V55.5667H87.4226V48.0247ZM12.4907 55.5667H15.8323C17.5264 55.5667 18.3154 54.7081 18.3154 53.5013C18.3154 52.5035 17.7816 51.8305 16.7142 51.6217C17.6656 51.4128 18.1065 50.8095 18.1065 49.9508C18.1065 48.8834 17.2943 48.0247 15.6235 48.0247H12.4907V55.5667ZM36.5784 48.0247H34.8148V52.9908L31.6124 48.0247H29.6631V55.5667H31.4267V50.6006L34.6291 55.5667H36.5784V48.0247ZM102.298 55.5667H104.34L102.46 52.3643C103.481 52.0858 103.968 51.3432 103.968 50.2989C103.968 48.9298 103.133 48.0247 101.253 48.0247H98.3294V55.5667H100.186V52.6195H100.627L102.298 55.5667ZM24.7898 48.0247H22.8637L20.0326 55.5667H21.9355L22.446 54.0351H25.1843L25.6949 55.5667H27.6442L24.7898 48.0247ZM166.021 50.4382C166.021 48.9298 165.186 48.0247 163.306 48.0247H160.382V55.5667H162.239V52.8516H163.306C165.186 52.8516 166.021 51.8769 166.021 50.4382ZM43.9347 55.5667L41.4517 51.7609V55.5667H39.572V48.0247H41.4517V51.6449L43.8187 48.0247H45.9072L43.4242 51.6449L46.1393 55.5667H43.9347ZM90.4858 55.5667H95.6839V54.0815H92.3655V52.4339H94.9878V50.9951H92.3655V49.4867H95.4287L95.7768 48.0247H90.509V55.5667H90.4858ZM117.312 53.571C116.569 54.0351 115.966 54.2207 115.339 54.2207C113.924 54.2207 112.972 53.2693 112.972 51.8305C112.972 50.415 113.924 49.4635 115.293 49.4635C115.92 49.4635 116.546 49.626 117.219 50.1133V48.3728C116.592 48.0247 115.873 47.8855 115.038 47.8855C112.531 47.8855 110.93 49.626 110.93 51.8073C110.93 54.0583 112.485 55.7523 115.061 55.7523C115.92 55.7523 116.639 55.6131 117.312 55.265V53.571ZM188.229 55.5667H190.109V52.7588L192.87 48.0247H190.735L189.204 50.9487L187.649 48.0247H185.491L188.229 52.7123V55.5667ZM60.5966 55.5667H62.4763V52.6195H64.8665V51.1575H62.4763V49.4867H65.3538L65.7019 48.0247H60.5966V55.5667ZM106.66 55.5667H108.517V54.2207V48.0247H106.66V55.5667ZM15.3914 52.3643C15.9948 52.3643 16.4125 52.6891 16.4125 53.2925C16.4125 53.9423 15.9948 54.2207 15.3914 54.2207H14.3472V52.3643H15.3914ZM163.004 49.4403C163.747 49.4403 164.118 49.7652 164.118 50.415C164.118 51.0647 163.724 51.4128 163.004 51.4128H162.239V49.4403H163.004ZM100.952 49.4403C101.694 49.4403 102.066 49.7652 102.066 50.3685C102.066 50.9951 101.671 51.3432 100.952 51.3432H100.186V49.4403H100.952ZM15.2058 49.3475C15.8323 49.3475 16.2268 49.626 16.2268 50.2293C16.2268 50.8327 15.8323 51.1111 15.2058 51.1111H14.3472V49.3475H15.2058ZM23.8152 49.8348L24.7202 52.5963H22.9101L23.8152 49.8348ZM5.15761 48.0247H3.23151L0.400391 55.5667H2.30328L2.81381 54.0351H5.55211L6.06264 55.5667H8.01194L5.15761 48.0247ZM4.18296 49.8348L5.08799 52.5963H3.27793L4.18296 49.8348ZM54.5398 55.7523C52.08 55.7523 50.4788 54.0119 50.4788 51.7841C50.4788 49.5795 52.0568 47.8623 54.5398 47.8623C56.9997 47.8623 58.6009 49.6027 58.6009 51.7841C58.6009 54.0119 56.9997 55.7523 54.5398 55.7523ZM54.5398 54.1975C55.7233 54.1975 56.582 53.2693 56.582 51.7841C56.582 50.2989 55.7001 49.3939 54.5398 49.3939C53.3563 49.3939 52.4977 50.2989 52.4977 51.7841C52.4745 53.2693 53.3563 54.1975 54.5398 54.1975ZM73.94 48.0247H72.0139L69.1596 55.5667H71.0625L71.573 54.0351H74.3113L74.8218 55.5667H76.7711L73.94 48.0247ZM72.9653 49.8348L73.8704 52.5963H72.0603L72.9653 49.8348ZM123.786 48.0247H121.86L119.029 55.5667H120.932L121.443 54.0351H124.181L124.691 55.5667H126.641L123.786 48.0247ZM122.812 49.8348L123.717 52.5963H121.907L122.812 49.8348ZM137.13 53.571C136.387 54.0351 135.784 54.2207 135.157 54.2207C133.742 54.2207 132.79 53.2693 132.79 51.8305C132.79 50.415 133.742 49.4635 135.111 49.4635C135.737 49.4635 136.364 49.626 137.037 50.1133V48.3728C136.41 48.0247 135.691 47.8855 134.856 47.8855C132.349 47.8855 130.748 49.626 130.748 51.8073C130.748 54.0583 132.303 55.7523 134.879 55.7523C135.737 55.7523 136.457 55.6131 137.13 55.265V53.571ZM142.862 55.7523C140.402 55.7523 138.801 54.0119 138.801 51.7841C138.801 49.5795 140.379 47.8623 142.862 47.8623C145.345 47.8623 146.923 49.6027 146.923 51.7841C146.923 54.0119 145.321 55.7523 142.862 55.7523ZM142.862 54.1975C144.045 54.1975 144.904 53.2693 144.904 51.7841C144.904 50.2989 144.022 49.3939 142.862 49.3939C141.678 49.3939 140.819 50.2989 140.819 51.7841C140.819 53.2693 141.678 54.1975 142.862 54.1975ZM157.481 48.0247H155.23L153.304 52.0394L151.425 48.0247H149.127V55.5667H150.844V50.415L153.304 55.5667L155.741 50.4382V55.5667H157.481V48.0247ZM171.683 48.0247H169.757L166.926 55.5667H168.829L169.34 54.0351H172.078L172.588 55.5667H174.538L171.683 48.0247ZM170.709 49.8348L171.614 52.5963H169.804L170.709 49.8348ZM183.449 48.0247H181.685V52.9908L178.483 48.0247H176.533V55.5667H178.297V50.6006L181.499 55.5667H183.449V48.0247Z" fill="#012169"/>
<path d="M20.0093 40.4828H16.1803V29.1351L10.7269 40.4828L5.2735 29.1351V40.4828H1.56055V23.4961H6.38738L10.7733 32.6624L15.1824 23.4961H20.0093V40.4828ZM27.9689 40.4828H39.5719V37.234H32.0996V33.4514H37.9939V30.2954H32.0996V26.7449H38.9453L39.6647 23.4961H27.9689V40.4828ZM59.8074 40.4828H55.3287L51.5925 33.7763H50.5019V40.4828H46.4408V23.4961H52.9617C57.1388 23.4961 58.972 25.5382 58.972 28.6246C58.972 31.0148 57.8581 32.6392 55.5607 33.289L59.8074 40.4828ZM54.8414 28.787C54.8414 27.3715 53.9363 26.6289 52.2423 26.6289H50.5019V30.9684H52.2423C53.9363 30.9684 54.8414 30.249 54.8414 28.787ZM79.3236 40.4828H74.8449L71.1087 33.7763H70.018V40.4828H65.957V23.4961H72.4779C76.6549 23.4961 78.4882 25.5382 78.4882 28.6246C78.4882 31.0148 77.3743 32.6392 75.0769 33.289L79.3236 40.4828ZM74.3576 28.787C74.3576 27.3715 73.4525 26.6289 71.7585 26.6289H70.018V30.9684H71.7585C73.4525 30.9684 74.3576 30.249 74.3576 28.787ZM85.4964 40.4828H89.6271V39.1137V23.4961H85.4964V40.4828ZM97.6795 40.4828H109.097V37.0948H101.81V23.4961H97.6795V40.4828ZM115.014 40.4828H126.432V37.0948H119.122V23.4961H114.991V40.4828H115.014Z" fill="#012169"/>
<path fill-rule="evenodd" clip-rule="evenodd" d="M174.399 39.1145C174.399 38.3719 175.026 37.7686 175.815 37.7686C176.581 37.7686 177.207 38.3719 177.207 39.1145C177.207 39.8803 176.581 40.4836 175.815 40.4836C175.026 40.4836 174.399 39.8803 174.399 39.1145ZM174.678 39.1145C174.678 39.7411 175.188 40.2284 175.815 40.2284C176.442 40.2284 176.929 39.7411 176.929 39.1145C176.929 38.5111 176.442 38.0238 175.815 38.0238C175.188 38.0238 174.678 38.5111 174.678 39.1145Z" fill="#012169"/>
<path fill-rule="evenodd" clip-rule="evenodd" d="M176.511 39.8802H176.256L175.815 39.184H175.537V39.8802H175.305V38.3486H175.978C176.117 38.3486 176.233 38.3486 176.349 38.4183C176.465 38.4879 176.511 38.6271 176.511 38.7431C176.511 39.0448 176.303 39.1608 176.024 39.1608L176.511 39.8802ZM175.769 38.9984C176.001 38.9984 176.303 39.0448 176.303 38.7663C176.303 38.5575 176.117 38.5575 175.931 38.5575H175.537V39.0216H175.769V38.9984Z" fill="#012169"/>
<path d="M146.436 15.9313C145.577 15.7921 144.742 15.7921 143.814 15.9313L143.558 15.4208C144.37 14.771 145.972 14.8174 146.714 15.4208L146.436 15.9313ZM174.422 30.7831C171.939 37.9769 172.287 39.4157 172.334 40.4832H165.279C165.557 39.8334 166.834 37.536 167.135 35.3315C166.811 35.6099 165.349 36.7238 163.283 35.9348C162.494 37.8841 161.195 40.0655 160.94 40.4832H154.697C155.393 39.2997 157.064 37.2343 157.876 34.1247L156.066 34.2872L155.95 32.8948L154.86 32.9877C154.72 34.8441 154.558 36.9791 154.558 36.9791C153.421 37.1415 151.936 37.304 150.636 37.304C150.102 37.304 148.339 37.3968 146.575 35.842C145.508 34.9602 144.231 33.8463 142.978 32.7092C142.862 35.3779 142.282 39.8334 142.189 40.5064H136.457C137.037 37.304 137.757 36.6078 136.318 30.2029C136.086 29.1587 136.132 27.8591 136.713 26.8149C135.018 24.6335 134.508 22.1041 135.204 19.4122C135.854 16.9756 137.014 13.309 137.896 10.6868L136.179 10.4779C136.132 9.85134 136.62 8.92311 137.223 8.41258C136.364 7.3451 136.016 6.25442 136.016 5.25657C136.156 0.708207 140.774 0.754618 142.352 0.80103C141.284 2.49506 140.82 4.04986 141.33 4.39795C141.841 4.72283 143.025 3.88742 144.974 3.88742C146.923 3.88742 148.107 4.72283 148.617 4.39795C149.128 4.07307 148.664 2.49506 147.596 0.80103C149.174 0.754618 153.792 0.685001 153.908 5.23336C153.908 6.25442 153.56 7.36831 152.794 8.31975C153.282 8.92311 153.746 9.75852 153.838 10.4547L151.82 10.5011C152.214 11.2669 152.562 11.8471 152.609 11.9399C154.094 14.5854 155.509 16.6507 156.739 17.9734C159.408 20.8742 163.214 22.0809 165.882 22.2665C168.876 22.4754 170.663 21.872 171.313 20.4565C171.73 19.5746 171.707 18.6928 171.289 17.8806C170.384 16.1401 167.669 14.7478 163.655 14.0052C160.011 13.3322 157.389 12.2648 156.484 9.31761V9.2944C156.461 9.22478 155.95 7.43793 157.087 5.92954C158.016 4.67642 159.733 4.04986 162.146 4.04986H175.118C175.049 4.16589 174.097 6.13839 172.867 7.41472C171.382 8.96952 169.943 9.43364 168.713 9.43364C166.718 9.43364 165.557 8.27334 164.629 7.3451C163.817 6.5329 163.26 6.02236 162.448 5.97595C162.239 5.97595 159.57 5.83672 158.642 7.06663C158.108 7.76281 158.317 8.64463 158.34 8.73746C158.897 10.5243 160.383 11.4061 164.003 12.0791C167.275 12.6825 171.475 14.0284 173.007 16.9756C173.703 18.3215 173.726 19.8299 173.076 21.2687C172.357 22.8235 170.918 23.7749 168.783 24.0998C170.291 25.7242 170.64 27.163 171.684 28.6481C172.078 29.2515 173.007 30.1333 174.422 30.7831ZM165.998 5.99916C166.834 6.85778 167.507 7.53075 168.713 7.53075C169.874 7.53075 170.872 6.76495 171.568 5.99916H165.998ZM141.098 30.9455C140.774 30.6439 138.685 28.741 138.221 28.3233C137.734 29.5532 139.869 34.0087 138.871 38.5339H140.541C140.843 35.958 141.191 32.3611 141.098 30.9455ZM161.636 34.7977C161.38 34.5192 161.172 34.1944 160.986 33.8463L159.918 33.9391C159.478 35.8652 158.781 37.42 158.178 38.5339H159.826C160.336 37.6288 161.102 36.1669 161.636 34.7977ZM166.184 33.5214C165.511 33.2197 163.098 32.7788 162.541 32.6164C162.773 33.2429 163.376 34.0551 164.351 34.264C165.302 34.4496 165.929 33.8695 166.184 33.5214ZM172.055 31.6649C170.524 30.5046 170.013 29.8549 168.969 27.9056C168.273 26.606 167.321 24.5175 164.722 24.0998C161.775 23.6821 158.016 22.2665 155.277 19.2962C154.999 18.9945 154.72 18.6696 154.465 18.3447C154.511 19.5282 154.256 21.1526 153.514 22.4754L152.005 21.1294C152.237 20.5725 152.423 19.9459 152.493 19.1801C152.655 17.2772 152.121 15.1423 150.845 12.7985C150.799 12.7057 149.824 10.9652 149.29 9.89775L147.48 12.4968L147.782 13.5179L147.062 14.771C146.041 14.5157 144.254 14.5389 143.233 14.771L142.607 13.5179H146.204C146.204 13.5179 146.413 13.0073 146.273 12.3808C145.763 10.2226 145.902 8.01807 148.687 7.97166C148.919 7.97166 149.244 7.99487 149.522 7.99487C151.193 7.94846 151.936 6.30084 151.936 5.23336C151.936 4.04986 151.054 2.91277 150.102 2.77353C150.497 3.49292 150.45 4.69963 150.218 5.16374C150.01 5.62786 149.406 6.34725 148.432 6.34725C147.782 6.34725 146.598 5.81351 144.951 5.81351C143.28 5.81351 142.12 6.34725 141.47 6.34725C140.495 6.34725 139.892 5.62786 139.683 5.16374C139.451 4.67642 139.404 3.49292 139.799 2.77353C138.871 2.88956 137.966 4.02665 137.966 5.23336C137.989 6.62572 139.196 8.1341 140.75 8.41258C140.588 8.85349 140.541 8.96952 140.124 10.2458C139.242 12.7521 137.85 17.138 137.13 19.8299C136.434 22.4754 137.2 24.8424 139.451 26.8149C139.938 27.2326 143.651 30.6439 144.835 31.7113C144.835 30.435 145.252 28.8802 146.436 27.0237L147.898 28.3233C146.784 30.1565 146.482 31.8042 147.016 33.1269C147.457 34.1944 148.432 35.0066 149.661 35.2618C150.265 35.4011 151.657 35.3082 152.748 35.2154C152.794 34.7049 152.841 33.9623 152.91 33.1037L149.731 33.359C150.427 32.5932 151.286 30.6439 151.286 28.8338H153.212C153.212 29.5996 153.096 30.4118 152.887 31.1544L157.691 30.7831L157.807 32.1522L160.406 31.9202C160.406 31.8738 160.406 31.8506 160.406 31.8042C159.06 31.1312 157.575 29.1123 158.248 26.1187H160.267C159.802 27.279 159.872 29.2283 161.218 30.0405C162.007 30.5278 163.26 30.7831 164.374 31.0152C166.323 31.4329 168.551 31.897 168.992 33.9623C169.27 35.3082 168.713 37.2111 168.226 38.5107H170.361C170.64 36.074 171.87 32.2683 172.055 31.6649ZM147.016 10.71C148.107 10.6636 148.64 9.94417 148.594 8.96952C147.503 8.99272 146.97 9.73531 147.016 10.71ZM141.632 8.83028C141.586 9.96737 142.212 10.8028 143.465 10.8492C143.512 9.71211 142.885 8.87669 141.632 8.83028Z" fill="#012169"/>
</g>
<defs>
<clipPath id="clip0_21_434">
<rect width="192.47" height="54.9981" fill="white" transform="translate(0.400391 0.800781)"/>
</clipPath>
</defs>
</svg>
