<svg width="56" height="56" viewBox="0 0 56 56" fill="none" xmlns="http://www.w3.org/2000/svg">
<g clip-path="url(#clip0_21_388)">
<path d="M28.3005 13.8047C25.4337 13.8047 22.6312 14.6548 20.2476 16.2475C17.8639 17.8402 16.0061 20.104 14.909 22.7526C13.8119 25.4011 13.5249 28.3156 14.0842 31.1273C14.6435 33.939 16.024 36.5217 18.0511 38.5488C20.0782 40.576 22.661 41.9565 25.4727 42.5158C28.2844 43.075 31.1988 42.788 33.8474 41.6909C36.496 40.5938 38.7597 38.736 40.3524 36.3524C41.9451 33.9687 42.7953 31.1663 42.7953 28.2995C42.7904 24.4567 41.2617 20.7727 38.5445 18.0555C35.8272 15.3382 32.1432 13.8095 28.3005 13.8047ZM28.3005 40.5026C25.8869 40.5026 23.5276 39.7869 21.5208 38.446C19.514 37.1051 17.9499 35.1992 17.0262 32.9694C16.1026 30.7396 15.861 28.2859 16.3318 25.9188C16.8027 23.5516 17.9649 21.3772 19.6715 19.6706C21.3782 17.9639 23.5526 16.8017 25.9198 16.3308C28.2869 15.86 30.7406 16.1016 32.9704 17.0253C35.2002 17.9489 37.1061 19.513 38.447 21.5198C39.7879 23.5266 40.5036 25.8859 40.5036 28.2995C40.5006 31.535 39.2139 34.6372 36.926 36.925C34.6382 39.2129 31.536 40.4996 28.3005 40.5026Z" fill="#012169"/>
<path d="M29.4463 21.782V19.1328H27.1546V21.782C26.2033 21.8922 25.3191 22.3271 24.6511 23.0134C23.9831 23.6998 23.5723 24.5955 23.488 25.5495C23.488 27.7082 25.0921 29.0511 28.1538 29.4316C30.8167 29.7684 30.8167 30.6966 30.8167 31.0357C30.8167 31.8882 29.6388 32.6399 28.2959 32.6399C26.953 32.6399 25.7751 31.8905 25.7751 31.0357V30.5911H23.4834V31.0495C23.5672 32.0039 23.9778 32.9001 24.6458 33.5869C25.3138 34.2737 26.1984 34.709 27.1501 34.8193V37.4661H29.4417V34.817C30.3939 34.7078 31.2792 34.2733 31.9481 33.5868C32.617 32.9004 33.0285 32.0042 33.113 31.0495C33.113 28.8907 31.5088 27.5478 28.4426 27.1536C25.7842 26.8214 25.7842 25.8932 25.7842 25.5495C25.7842 24.697 26.9621 23.9453 28.3051 23.9453C29.648 23.9453 30.8259 24.6947 30.8259 25.5495V26.0078H33.1176V25.5495C33.033 24.5948 32.6216 23.6985 31.9527 23.0121C31.2838 22.3257 30.3985 21.8912 29.4463 21.782Z" fill="#012169"/>
<path d="M51.2171 28.2995L46.4619 22.0936L46.84 14.137L39.5296 12.0539L35.3817 5.38281L28.3005 8.2199L21.2192 5.38281L17.0713 12.0539L9.76087 14.137L10.139 22.0936L5.38379 28.2995L10.139 34.5053L9.76087 42.462L17.0759 44.5451L21.2192 51.2161L28.3005 48.3791L35.3817 51.2161L39.5296 44.5451L46.8446 42.462L46.4665 34.5053L51.2171 28.2995ZM44.1748 34.613L44.4659 40.757L38.8994 42.3405L38.0469 42.5834L37.5886 43.3351L34.4582 48.3768L29.1621 46.2547L28.3005 45.9109L27.448 46.2524L22.1519 48.3745L19.0215 43.3328L18.5632 42.5811L17.713 42.3382L12.1442 40.7547L12.4352 34.6107L12.4765 33.7743L11.9563 33.112L8.27129 28.2995L11.9563 23.487L12.4673 22.8201L12.4261 21.9836L12.135 15.842L17.7038 14.2584L18.554 14.0155L19.0123 13.2639L22.1427 8.22219L27.4388 10.3443L28.3005 10.688L29.153 10.3466L34.449 8.22448L37.5794 13.2661L38.0377 14.0178L38.8902 14.2607L44.4567 15.8443L44.1657 21.9882L44.1244 22.8247L44.6355 23.4916L48.3296 28.2995L44.6446 33.112L44.1336 33.7789L44.1748 34.613Z" fill="#012169"/>
</g>
<defs>
<clipPath id="clip0_21_388">
<rect width="55" height="55" fill="white" transform="translate(0.800293 0.799805)"/>
</clipPath>
</defs>
</svg>
