<svg width="41" height="41" viewBox="0 0 41 41" fill="none" xmlns="http://www.w3.org/2000/svg">
<g clip-path="url(#clip0_21_493)">
<path fill-rule="evenodd" clip-rule="evenodd" d="M37.9399 6.7002V33.5002H4.43994V6.7002H37.9399ZM36.2649 8.3752H6.11494V31.8252H36.2649V8.3752ZM21.1899 19.3414L22.411 20.5508L24.086 20.1136L24.5399 21.7752L26.1999 22.2258L25.761 23.9008L26.9737 25.1252L25.7644 26.3463L26.2032 28.0213L24.5399 28.4752L24.0927 30.1385L22.4177 29.6996L21.1933 30.9123L19.9689 29.6996L18.2939 30.1385L17.8399 28.4752L16.18 28.0246L16.6189 26.3496L15.4062 25.1252L16.6189 23.9008L16.1767 22.2291L17.8399 21.7752L18.2905 20.1153L19.9655 20.5524L21.1899 19.3414ZM21.1899 21.6965L20.4613 22.4217L19.4764 22.1638L19.2067 23.147L18.2218 23.4167L18.4798 24.4033L17.7612 25.1252L18.4798 25.8538L18.2218 26.8387L19.2051 27.1084L19.4747 28.0933L20.4613 27.8353L21.1899 28.5539L21.9186 27.8353L22.9035 28.0933L23.1731 27.1101L24.158 26.8404L23.9001 25.8538L24.6187 25.1252L23.9001 24.3966L24.158 23.4117L23.1748 23.142L22.9051 22.1571L21.9186 22.415L21.1899 21.6965ZM30.7163 10.226C31.1505 9.83262 31.7366 9.65169 32.317 9.73194C32.9312 9.72944 33.5385 9.86211 34.0958 10.1205L33.7608 11.154C33.3509 10.9704 32.9069 10.8751 32.4577 10.8743C31.8815 10.8743 31.4845 11.0736 31.4845 11.6012C31.4845 12.834 34.5263 12.3466 34.5263 14.7033C34.5263 15.8457 33.7256 16.8004 32.0506 16.8004C31.3181 16.8124 30.5949 16.6341 29.9519 16.2829L30.3103 15.2293C30.8207 15.4954 31.3863 15.6382 31.9619 15.6464C32.7056 15.6464 33.0456 15.3499 33.0406 14.8223C33.0406 13.4454 30.0674 13.9663 30.0674 11.7704C30.0446 11.185 30.2822 10.6195 30.7163 10.226ZM17.6992 9.85589L17.6875 14.1104C17.6875 15.7854 17.0024 16.7904 15.2236 16.7904C13.3526 16.7904 12.7664 15.7452 12.7664 14.1958V9.86427H14.227V14.3868C14.227 15.1707 14.4564 15.7268 15.232 15.7268C15.9589 15.7268 16.247 15.2896 16.247 14.365V9.85589H17.6992ZM20.0727 9.8827L21.0961 11.7101C21.5246 12.4378 21.9132 13.1881 22.2603 13.958H22.3088V9.8827H23.751V16.7033H22.3289L20.5099 13.3533C20.3826 13.1121 20.2419 12.834 20.1029 12.5158C20.0828 12.5158 20.0727 12.5258 20.0509 12.5258V16.7016H18.6322V9.8827H20.0727ZM12.2304 9.87097V10.9145H9.74634V12.7436H11.7949V13.7871H9.74634L9.75639 16.7016H8.27402V9.87097H12.2304ZM26.5533 9.86092C28.8112 9.86092 29.5968 11.4321 29.5968 13.2612C29.7015 14.1371 29.4251 15.0158 28.8377 15.674C28.2504 16.3322 27.4086 16.7064 26.5265 16.7017H24.684V9.86092H26.5533ZM26.4628 10.8877H26.1563V15.6581H26.4628C27.091 15.6581 28.0742 15.2611 28.0742 13.3131C28.0742 11.3131 27.1596 10.8877 26.4628 10.8877Z" fill="black"/>
</g>
<defs>
<clipPath id="clip0_21_493">
<rect width="40" height="40" fill="white" transform="translate(0.939941 0.200195)"/>
</clipPath>
</defs>
</svg>
