<svg width="41" height="41" viewBox="0 0 41 41" fill="none" xmlns="http://www.w3.org/2000/svg">
<g clip-path="url(#clip0_21_504)">
<path d="M28.1061 15.3672C28.1061 15.7005 27.7728 15.8672 27.4395 15.8672C26.9395 15.8672 26.6061 15.7005 26.2728 15.5339L25.9395 16.5339C26.4395 16.8672 27.1061 16.8672 27.6061 16.8672C28.7728 16.8672 29.4395 16.2005 29.4395 15.3672C29.4395 13.7005 27.2728 13.8672 27.2728 13.2005C27.2728 12.8672 27.6061 12.7005 27.7728 12.7005C28.1061 12.7005 28.4395 12.7005 28.7728 12.8672L29.1061 12.0339C28.6061 12.0339 28.2728 11.8672 27.7728 11.8672C26.7728 11.8672 26.1061 12.3672 26.1061 13.3672C25.9395 14.8672 28.1061 14.7005 28.1061 15.3672Z" fill="black"/>
<path d="M4.27246 6.86719V33.5339H37.6058V6.86719H4.27246ZM35.9391 31.8672H5.93913V8.53385H35.9391V31.8672Z" fill="black"/>
<path d="M25.4388 24.0339L25.9388 22.3672L24.2721 21.8672L23.7721 20.2005L22.1055 20.7005L20.9388 19.3672L19.7721 20.5339L18.1055 20.0339L17.6055 21.8672L15.9388 22.3672L16.4388 24.0339L15.1055 25.2005L16.2721 26.3672L15.7721 28.0339L17.4388 28.5339L17.9388 30.2005L19.6055 29.7005L20.7721 30.8672L21.9388 29.7005L23.6055 30.2005L24.1055 28.5339L25.7721 28.0339L25.2721 26.3672L26.4388 25.2005L25.4388 24.0339ZM23.6055 25.8672L23.9388 26.8672L22.9388 27.2005L22.6055 28.2005L21.6055 27.8672L20.9388 28.5339L20.2721 27.8672L19.2721 28.2005L18.9388 27.2005L17.9388 26.8672L18.2721 25.8672L17.6055 25.2005L18.2721 24.5339L17.9388 23.5339L18.9388 23.2005L19.2721 22.2005L20.2721 22.5339L20.9388 21.8672L21.6055 22.5339L22.6055 22.2005L22.9388 23.2005L23.9388 23.5339L23.6055 24.5339L24.2721 25.2005L23.6055 25.8672Z" fill="black"/>
<path d="M18.7725 11.2005C18.4391 11.0339 18.1058 10.8672 17.7725 11.0339C16.7725 11.0339 16.2725 11.8672 16.2725 13.3672C16.2725 14.7005 16.4391 15.5339 17.6058 15.5339C18.1058 15.5339 18.4391 15.3672 18.7725 15.2005L19.2725 16.3672C18.7725 16.7005 18.1058 16.8672 17.4391 16.8672C15.4391 16.8672 14.7725 15.5339 14.7725 13.3672C14.7725 11.8672 15.2725 9.86719 17.6058 9.86719C18.1058 9.86719 18.7725 10.0339 19.2725 10.3672L18.7725 11.2005Z" fill="black"/>
<path d="M21.7728 15.6999V11.0332H22.1061C22.7728 11.0332 23.7728 11.5332 23.7728 13.3665C23.7728 15.3665 22.7728 15.6999 22.1061 15.6999H21.7728ZM22.2728 10.0332H20.4395V16.8665H22.2728C24.6061 16.8665 25.2728 15.1999 25.2728 13.3665C25.2728 11.5332 24.4395 10.0332 22.2728 10.0332Z" fill="black"/>
</g>
<defs>
<clipPath id="clip0_21_504">
<rect width="40" height="40" fill="white" transform="translate(0.939453 0.200195)"/>
</clipPath>
</defs>
</svg>
