<svg width="312" height="32" viewBox="0 0 312 32" fill="none" xmlns="http://www.w3.org/2000/svg">
<g clip-path="url(#clip0_21_60)">
<path d="M287.994 29.8826C287.994 29.1909 288.556 28.6289 289.291 28.6289C290.026 28.6289 290.588 29.1909 290.588 29.8826C290.588 30.5743 290.026 31.1796 289.291 31.1796C288.556 31.1796 287.994 30.6176 287.994 29.8826ZM288.253 29.8826C288.253 30.4446 288.729 30.9202 289.334 30.9202C289.896 30.9202 290.371 30.4879 290.371 29.8826C290.371 29.3206 289.896 28.8883 289.334 28.8883C288.685 28.8883 288.253 29.3638 288.253 29.8826Z" fill="#E31837"/>
<path d="M289.939 30.6181H289.68L289.247 29.9696H288.988V30.6181H288.815V29.1914H289.463C289.593 29.1914 289.723 29.1914 289.809 29.2779C289.939 29.3211 289.982 29.4508 289.982 29.5805C289.982 29.8399 289.766 29.9696 289.507 29.9696L289.939 30.6181ZM289.247 29.7966C289.463 29.7966 289.723 29.8399 289.723 29.5805C289.723 29.4076 289.55 29.3643 289.377 29.3643H288.988V29.7966H289.247Z" fill="#E31837"/>
<path d="M283.109 31.1794C292.187 23.3977 304.941 15.8322 311.944 13.1086C310.863 12.4169 309.177 11.4226 307.275 10.3418C298.24 13.3248 287.691 19.9392 278.267 27.4183C279.866 28.6288 281.552 29.8825 283.109 31.1794Z" fill="#E31837"/>
<path d="M278.958 10.0391C277.618 9.39062 276.148 8.78538 275.024 8.2666C271.609 9.95263 267.156 12.5033 261.536 16.5238C262.747 17.1723 264.044 17.9505 265.427 18.7287C269.75 15.5295 274.117 12.5033 278.958 10.0391Z" fill="#012169"/>
<path d="M287.043 6.32177C285.4 5.41391 279.693 3.29556 275.759 2.3877C274.592 2.82001 272.949 3.46849 271.825 3.94403C273.252 4.33312 278.569 5.75976 283.109 8.05104C284.276 7.48903 285.919 6.79732 287.043 6.32177Z" fill="#E31837"/>
<path d="M267.718 5.75977C262.66 8.09427 257.342 11.2934 254.446 13.1524C255.483 13.6279 256.521 14.017 257.948 14.7087C264.346 10.3855 269.361 7.74842 271.349 6.88379C269.923 6.36501 268.583 6.01916 267.718 5.75977Z" fill="#012169"/>
<path d="M290.847 4.9814C292.014 4.59232 293.354 4.24646 294.522 3.90061C291.149 2.47397 286.913 0.960861 283.108 0.00976562C282.503 0.182692 280.687 0.65824 279.434 1.04732C280.731 1.43641 285.011 2.43074 290.847 4.9814ZM269.534 21.2365C270.917 22.0579 272.387 23.1819 273.814 24.133C283.281 16.7836 292.619 11.1203 302.865 7.92115C301.439 7.18621 300.185 6.53774 298.585 5.75957C292.446 7.31591 281.941 11.5094 269.534 21.2365Z" fill="#E31837"/>
<path d="M0.67627 28.9316H7.59333C11.0951 28.9316 12.7379 27.1159 12.7379 24.5652C12.7379 22.4901 11.6571 21.1067 9.40906 20.6743C11.3977 20.1988 12.3056 18.9883 12.3056 17.2158C12.3056 14.9678 10.6628 13.152 7.16101 13.152H0.719501V28.9316H0.67627ZM6.68546 22.2307C7.98241 22.2307 8.89028 22.8792 8.89028 24.1761C8.89028 25.5595 8.02564 26.1215 6.68546 26.1215H4.43742V22.1875H6.68546V22.2307ZM6.25315 15.9189C7.5501 15.9189 8.45796 16.4809 8.45796 17.7778C8.45796 19.0748 7.59333 19.6368 6.25315 19.6368H4.43742V15.9189H6.25315ZM26.7017 13.1088H22.8109L16.8881 28.9316H20.8222L21.903 25.646H27.6096L28.6904 28.9316H32.6677L26.7017 13.1088ZM24.7563 16.9132L26.6152 22.7495H22.8109L24.7563 16.9132ZM52.3813 13.1088H48.7931V23.7006L42.0489 13.1088H38.0284V28.9316H41.6166V18.3831L48.3607 28.9316H52.3813V13.1088ZM68.939 28.9316L63.7512 20.8905V28.9316H59.9036V13.1088H63.7512V20.7176L68.6796 13.1088H72.9595L67.7717 20.7176L73.4351 28.9316H68.939ZM87.053 21.0202C87.053 24.1761 88.9552 26.1215 91.4194 26.1215C93.8836 26.1215 95.7858 24.1761 95.7858 21.0202C95.7858 17.8643 93.8836 15.9189 91.4194 15.9189C88.9552 15.9189 87.053 17.8643 87.053 21.0202ZM82.9893 21.0202C83.0325 16.3944 86.2749 12.763 91.4194 12.763C96.564 12.763 99.8064 16.3944 99.8496 21.0202C99.8064 25.646 96.564 29.2774 91.4194 29.2774C86.2749 29.2774 83.0325 25.646 82.9893 21.0202ZM105.124 28.9316H108.971V22.7062H113.986V19.68H108.971V16.135H115.024L115.716 13.1088H105.124V28.9316ZM133.657 13.1088H129.766L123.843 28.9316H127.777L128.858 25.646H134.565L135.645 28.9316H139.623L133.657 13.1088ZM131.711 16.9132L133.57 22.7495H129.766L131.711 16.9132ZM162.449 13.1088H157.953L153.846 21.6687L149.739 13.1088H145.243V28.9316H148.701V18.3398L153.803 28.9316L158.904 18.3398V28.9316H162.492L162.449 13.1088ZM169.928 28.9316H180.736V25.9054H173.776V22.3604H179.266V19.4206H173.776V16.135H180.131L180.822 13.1088H169.928V28.9316ZM195.391 28.9316H199.585L195.651 22.2307C197.812 21.6254 198.85 20.1123 198.85 17.9075C198.85 15.0542 197.121 13.152 193.23 13.152H187.134V28.9748H190.895V22.7495H191.933L195.391 28.9316ZM192.495 16.0486C194.095 16.0486 194.916 16.7403 194.916 18.0804C194.916 19.4206 194.095 20.1123 192.495 20.1123H190.852V16.0486H192.495ZM205.335 28.9316H209.182V13.152H205.335V28.9316ZM228.118 24.6949C226.648 25.7324 225.351 26.0783 224.011 26.0783C221.071 26.0783 218.996 24.0464 218.996 21.0202C218.996 17.994 221.028 15.9621 223.881 15.9621C225.178 15.9621 226.475 16.308 227.902 17.3455V13.7573C226.605 13.0223 225.092 12.7197 223.406 12.7197C218.175 12.7197 214.889 16.3512 214.846 20.977C214.889 25.646 218.088 29.2342 223.406 29.2342C225.178 29.2342 226.691 28.9316 228.075 28.1966V24.6949H228.118ZM242.211 13.1088H238.32L232.398 28.9316H236.332L237.413 25.646H243.119L244.2 28.9316H248.177L242.211 13.1088ZM240.266 16.9132L242.125 22.7495H238.32L240.266 16.9132Z" fill="#012169"/>
</g>
<defs>
<clipPath id="clip0_21_60">
<rect width="311.268" height="31.17" fill="white" transform="translate(0.67627 0.00976562)"/>
</clipPath>
</defs>
</svg>
