<svg width="295" height="143" viewBox="0 0 295 143" fill="none" xmlns="http://www.w3.org/2000/svg">
<g clip-path="url(#clip0_21_290)">
<path d="M249.402 53.9642L0.300293 35.4425L8.05761 19.4404L270.65 43.7202L249.402 53.9642Z" fill="#780032"/>
<path d="M142.03 122.061H248.311L270.707 112.354L174.604 113.767L142.03 122.061Z" fill="#780032"/>
<path d="M253.722 32.0218L0.300293 35.442L1.04381 3.19008L269.303 0.158203L253.722 32.0218Z" fill="#E31837"/>
<path d="M270.707 112.354L84.0361 115.097L84.1022 44.4798L270.649 43.7197L270.707 112.354Z" fill="#E31837"/>
<path d="M284.933 140.344L146.789 142.442L142.03 122.062L294.26 119.236L284.933 140.344Z" fill="#E31837"/>
<path d="M34.9395 25.3632L34.8569 11.0382L40.0202 11.0051C45.1918 10.9721 46.5879 14.2766 46.6044 18.1015C46.6292 22.0091 45.1009 25.2971 39.9046 25.3301L34.9313 25.3632H34.9395ZM37.137 12.8226L37.2031 23.5787L39.6732 23.5622C41.0198 23.554 44.3326 23.5044 44.2995 18.2502C44.2665 12.9135 41.2594 12.7896 39.7145 12.7978L37.1288 12.8143L37.137 12.8226Z" fill="white"/>
<path d="M57.1543 25.3956C52.181 25.4286 50.2809 22.6033 50.2561 18.2166C50.2313 14.2594 51.9827 10.7071 57.0634 10.6741C62.1441 10.641 63.6559 14.2016 63.6806 18.0761C63.7054 22.2315 61.5327 25.3626 57.1543 25.3873V25.3956ZM57.0799 12.3346C53.4532 12.3594 52.5775 15.2508 52.594 18.2579C52.6188 21.8515 53.9737 23.7847 57.146 23.7681C60.0374 23.7516 61.3758 21.2154 61.351 18.1505C61.3345 15.4573 60.6405 12.3098 57.0716 12.3346H57.0799Z" fill="white"/>
<path d="M69.7275 14.1937C69.744 17.3082 69.7936 20.2905 69.8762 25.1481L67.6539 25.1646L67.5713 10.8727L69.901 10.8561L75.9895 19.4726L77.6004 21.8188H77.6252L77.5591 10.8066L79.7484 10.79L79.8062 25.082L77.6996 25.0985L70.9832 15.7303C70.5619 15.1189 70.2232 14.6976 69.7936 14.078L69.7109 14.1937H69.7275Z" fill="white"/>
<path d="M84.2343 11.5254L83.8047 5.82512L85.9113 5.80859L85.523 11.5089H84.2343V11.5254Z" fill="white"/>
<path d="M93.6937 25.0079L93.5946 12.426L88.5635 12.4591V10.716L100.798 10.6416V12.3847L95.8416 12.4178L95.8912 24.9997L93.702 25.0162L93.6937 25.0079Z" fill="white"/>
<path d="M119.576 22.1241L124.615 10.5253L127.143 10.5088L127.226 24.8007L125.037 24.8173L124.979 14.6229H124.863L120.344 24.8503H118.684L114.016 14.6394H113.901L113.967 24.8916L111.777 24.9081L111.695 10.6162L114.248 10.5997L119.427 22.1406H119.568L119.576 22.1241Z" fill="white"/>
<path d="M131.53 24.7761L131.447 10.4511L133.719 10.4346L133.802 24.7596L131.53 24.7761Z" fill="white"/>
<path d="M140.006 14.111C140.006 15.5154 141.782 15.8706 143.476 16.3911C145.896 17.1346 148.259 18.159 148.276 20.6622C148.292 23.4462 145.83 24.8589 142.46 24.8837C140.799 24.8919 138.949 24.5945 137.313 23.7932L138.007 22.1574C140.229 23.0744 141.353 23.124 142.311 23.1157C144.674 23.0992 146.07 22.5622 146.062 20.7035C146.062 19.4643 144.814 18.8034 142.931 18.2499C140.287 17.4816 137.784 16.8455 137.767 14.3506C137.751 11.74 139.99 10.1786 143.079 10.1621C144.319 10.1621 146.086 10.3686 147.491 11.0874L146.83 12.6653C145.368 11.9961 143.872 11.8391 143.063 11.8474C141.295 11.8557 140.006 12.5083 140.014 14.111H140.006Z" fill="white"/>
<path d="M153.513 14.029C153.513 15.4334 155.29 15.7886 156.983 16.3091C159.404 17.0526 161.766 18.077 161.783 20.5801C161.8 23.3642 159.338 24.7768 155.967 24.8016C154.307 24.8099 152.456 24.5125 150.82 23.7111L151.514 22.0754C153.737 22.9924 154.86 23.042 155.818 23.0337C158.181 23.0172 159.577 22.4802 159.569 20.6214C159.569 19.3822 158.322 18.7213 156.438 18.1678C153.794 17.3995 151.291 16.7634 151.275 14.2685C151.258 11.658 153.497 10.0966 156.587 10.0801C157.826 10.0801 159.594 10.2866 160.998 11.0053L160.337 12.5832C158.875 11.9223 157.38 11.7571 156.57 11.7654C154.802 11.7736 153.513 12.4263 153.522 14.029H153.513Z" fill="white"/>
<path d="M179.957 24.6524C174.984 24.6855 173.084 21.8601 173.059 17.4734C173.035 13.5163 174.786 9.96394 179.867 9.93089C184.947 9.89785 186.459 13.4584 186.484 17.333C186.509 21.4884 184.336 24.6194 179.957 24.6442V24.6524ZM179.883 11.5914C176.256 11.6162 175.381 14.5076 175.397 17.5147C175.422 21.1084 176.777 23.0415 179.949 23.0167C182.841 23.0002 184.179 20.464 184.154 17.3991C184.138 14.7059 183.444 11.5584 179.875 11.5831L179.883 11.5914Z" fill="white"/>
<path d="M202.444 19.1589C202.461 22.3642 200.511 24.5039 196.381 24.5287C192.085 24.5535 190.3 22.5708 190.284 19.225L190.226 10.0963L192.44 10.0798L192.498 19.2084C192.514 21.6786 193.927 22.9343 196.364 22.9177C198.834 22.9012 200.23 21.629 200.214 19.1589L200.156 10.0302L202.345 10.0137L202.428 19.1424L202.444 19.1589Z" fill="white"/>
<path d="M210.202 24.3058L210.103 11.7239L205.072 11.7569V10.0138L217.307 9.93945V11.6826L212.35 11.7156L212.4 24.2975L210.21 24.314L210.202 24.3058Z" fill="white"/>
<path d="M110.307 81.0028C107.399 80.9202 104.285 80.2675 101.806 78.8383L103.103 75.4099C106.573 77.0126 109.431 77.277 111.34 77.277C114.809 77.277 116.974 76.0626 116.974 72.7663C116.974 69.9905 114.851 69.0405 111.86 68.2144C106.92 66.8265 102.368 65.6534 102.368 60.1101C102.368 55.5168 105.358 52.4354 110.299 51.8736V47.71H113.289V51.8241C115.454 51.9562 117.973 52.4767 120.055 53.6002L118.758 56.9378C115.85 55.7234 113.859 55.5499 111.992 55.5499C109.175 55.5499 107.135 57.0204 107.135 59.9283C107.135 62.5719 110.043 63.3568 112.942 64.092C116.759 65.1329 121.79 66.3886 121.79 72.7663C121.79 77.7066 118.32 80.4823 113.289 80.9615V85.2078H110.299V81.0028H110.307Z" fill="white"/>
<path d="M126.615 105.679V100.252L134.347 93.0397C142.452 85.4559 150.482 76.4593 150.556 69.0986C150.556 63.5222 147.136 60.8456 141.634 60.8456C138.809 60.8456 134.124 61.5891 128.92 64.7119L126.243 59.4329C132.191 55.1949 138.437 53.7822 143.047 53.7822C152.638 53.7822 159.106 58.7638 159.106 68.4294C159.106 80.4 145.723 91.7014 138.139 99.1365L138.288 99.5082H161.188V105.679H126.615Z" fill="white"/>
<path d="M183.865 106.274C168.252 106.274 164.608 93.7829 164.608 80.5484C164.608 68.2061 168.326 53.9307 183.94 53.9307C199.553 53.9307 202.825 68.6522 202.825 80.3254C202.825 93.2625 198.215 106.274 183.865 106.274ZM183.94 60.5479C174.2 60.5479 172.936 72.1467 172.936 80.6228C172.936 91.255 174.795 99.731 183.94 99.731C192.49 99.731 194.498 89.991 194.498 80.5484C194.498 72.5185 193.754 60.5479 183.94 60.5479Z" fill="white"/>
<path d="M226.171 106.274C210.557 106.274 206.914 93.7829 206.914 80.5484C206.914 68.2061 210.632 53.9307 226.245 53.9307C241.859 53.9307 245.131 68.6522 245.131 80.3254C245.131 93.2625 240.521 106.274 226.171 106.274ZM226.245 60.5479C216.505 60.5479 215.241 72.1467 215.241 80.6228C215.241 91.255 217.1 99.731 226.245 99.731C234.796 99.731 236.803 89.991 236.803 80.5484C236.803 72.5185 236.06 60.5479 226.245 60.5479Z" fill="white"/>
<path d="M173.976 137.319C173.01 137.699 171.415 137.93 170.193 137.947C166.029 138.005 164.542 135.617 164.492 132.106C164.459 129.562 165.542 125.919 170.143 125.852C171.597 125.836 172.712 126.051 173.53 126.315L173.225 127.703C171.928 127.373 170.862 127.339 170.217 127.348C167.533 127.381 166.376 129.157 166.417 132.073C166.45 134.758 167.359 136.526 170.457 136.485C171.151 136.476 172.539 136.319 173.596 136.006L173.985 137.319H173.976Z" fill="white"/>
<path d="M183.717 137.65L182.535 134.428L177.843 134.494C177.62 135.171 177.421 135.634 176.728 137.749L174.786 137.774L178.999 125.919L181.222 125.886L185.732 137.625L183.717 137.65ZM180.569 128.852C180.453 128.579 180.206 127.769 180.106 127.488H180.082C179.991 127.769 179.751 128.579 179.635 128.86C179.099 130.421 178.793 131.627 178.264 133.18L182.106 133.131C181.503 131.586 181.164 130.413 180.569 128.852Z" fill="white"/>
<path d="M188.921 128.835C188.937 129.992 190.4 130.273 191.787 130.694C193.787 131.289 195.736 132.123 195.769 134.18C195.802 136.468 193.778 137.658 191.003 137.691C189.64 137.708 188.111 137.476 186.756 136.824L187.318 135.477C189.152 136.212 190.086 136.245 190.87 136.237C192.812 136.212 193.96 135.758 193.944 134.23C193.927 133.214 192.903 132.668 191.35 132.23C189.169 131.611 187.103 131.107 187.07 129.05C187.037 126.902 188.871 125.605 191.416 125.564C192.432 125.547 193.894 125.712 195.059 126.299L194.522 127.604C193.316 127.067 192.085 126.943 191.416 126.951C189.962 126.968 188.904 127.522 188.921 128.835Z" fill="white"/>
<path d="M205.692 137.344L205.617 131.883L199.9 131.958L200 137.418L198.124 137.443L197.959 125.671L199.834 125.646L199.876 130.528L205.592 130.454L205.526 125.572L207.377 125.547L207.542 137.319L205.692 137.344Z" fill="white"/>
<path d="M222.255 137.262C218.158 137.32 216.58 135.006 216.53 131.396C216.489 128.133 217.902 125.2 222.09 125.142C226.278 125.085 227.542 128.009 227.584 131.198C227.633 134.618 225.865 137.212 222.255 137.262ZM222.107 126.506C219.124 126.547 218.414 128.943 218.447 131.413C218.488 134.37 219.62 135.956 222.23 135.915C224.61 135.882 225.692 133.784 225.659 131.264C225.626 129.042 225.039 126.464 222.098 126.497L222.107 126.506Z" fill="white"/>
<path d="M230.442 137.005L230.277 125.208L238.373 125.101L238.389 126.579L232.144 126.662L232.193 130.041L237.142 129.975L237.158 131.412L232.21 131.478L232.284 136.98L230.434 137.005H230.442Z" fill="white"/>
<path d="M240.496 136.865L240.331 125.068L248.427 124.961L248.444 126.44L242.198 126.522L242.248 129.901L247.196 129.835L247.213 131.273L242.264 131.339L242.339 136.841L240.488 136.865H240.496Z" fill="white"/>
<path d="M250.558 136.733L250.393 124.936L258.53 124.828L258.546 126.307L252.301 126.39L252.35 129.793L257.696 129.719L257.712 131.131L252.367 131.206L252.425 135.229L258.968 135.138L258.993 136.617L250.55 136.733H250.558Z" fill="white"/>
<path d="M267.42 131.363L270.336 136.46L268.37 136.485L265.644 131.594L263.033 131.627L263.099 136.551L261.207 136.576L261.042 124.779L265.784 124.713C268.585 124.671 269.948 126.109 269.972 128.034C269.989 129.422 269.105 130.917 267.428 131.355L267.42 131.363ZM265.627 130.281C267.064 130.264 268.097 129.711 268.072 128.116C268.056 126.662 266.932 126.076 265.52 126.092L262.926 126.125L262.983 130.314L265.619 130.281H265.627Z" fill="white"/>
</g>
<defs>
<clipPath id="clip0_21_290">
<rect width="293.96" height="142.283" fill="white" transform="translate(0.300293 0.158203)"/>
</clipPath>
</defs>
</svg>
