<svg width="55" height="56" viewBox="0 0 55 56" fill="none" xmlns="http://www.w3.org/2000/svg">
<path d="M27.1564 54.1956C41.5216 54.1956 53.1668 42.5504 53.1668 28.1852C53.1668 13.8201 41.5216 2.1748 27.1564 2.1748C12.7913 2.1748 1.146 13.8201 1.146 28.1852C1.146 42.5504 12.7913 54.1956 27.1564 54.1956Z" fill="#E21D38"/>
<path d="M36.2083 21.3105C35.0625 19.7064 34.0312 18.4459 33.3438 17.6439C22.2292 16.3834 14.2083 17.5293 10.6562 18.2168C11.3438 19.248 12.1458 20.623 13.1771 22.4564C16.7292 21.5397 24.8646 20.1647 36.2083 21.3105ZM18.2187 32.8834C19.1354 35.1751 20.0521 37.5814 20.8542 40.2168C25.6667 38.3834 33.6875 36.3209 44.8021 36.2064C43.8854 34.1439 42.9688 32.3105 42.0521 30.7064C30.0208 29.7897 21.6562 31.8522 18.2187 32.8834ZM14.5521 24.748C15.3542 26.3522 16.2708 28.0709 17.0729 30.0189C20.3958 28.9876 28.3021 27.2689 40.5625 28.0709C39.6458 26.3522 38.6146 24.8626 37.8125 23.4876C25.8958 22.4564 17.875 23.9459 14.5521 24.748Z" fill="white"/>
</svg>
