<svg width="20" height="21" viewBox="0 0 20 21" fill="none" xmlns="http://www.w3.org/2000/svg">
<g clip-path="url(#clip0_33_1565)">
<path fill-rule="evenodd" clip-rule="evenodd" d="M7.12042 2.25934C7.11333 2.55943 7.16449 2.70384 7.42825 2.70418H13.7733C14.9222 2.79322 15.9504 3.09246 16.8196 3.67556C17.4232 4.08042 17.8636 4.56132 18.196 5.09435C18.7857 6.0406 19.1189 7.40505 19.2994 8.50665C19.3772 8.98294 19.4136 9.42813 19.3305 9.63457C19.2911 9.73181 19.2328 9.79743 19.1537 9.82854C18.7174 10.0013 18.2563 9.40745 18.0105 9.12325C16.8404 7.77008 15.1396 7.21022 13.1343 7.10512H7.3337C7.12612 7.14067 7.05249 7.29243 7.07323 7.52655V9.1417C7.06113 9.67849 6.78735 9.86118 6.24463 9.68003L1.25001 5.8046L0.758794 5.42332L0.633138 5.32591C0.231626 4.96891 0.39669 4.64386 0.757066 4.36325L1.13836 4.06657L5.92435 0.34153C6.50838 -0.113227 7.12042 -0.234906 7.12042 0.745189V2.25934ZM12.6787 18.7405C12.6858 18.4402 12.6348 18.2958 12.371 18.2955H6.02598C4.8771 18.2064 3.84886 17.9074 2.97964 17.3241C2.37227 16.9167 1.93014 16.4325 1.59725 15.8957C0.994896 14.924 0.602199 13.3424 0.458049 12.2073C0.412073 11.8451 0.402567 11.5295 0.468938 11.3652C0.508173 11.268 0.566594 11.2024 0.645583 11.1711C1.08184 10.9983 1.54298 11.5922 1.78876 11.8764C2.95907 13.2296 4.65984 13.7894 6.66515 13.8945H12.4657C12.6731 13.8591 12.7469 13.7072 12.7262 13.4731V11.8579C12.7383 11.3212 13.0121 11.1385 13.5548 11.3196L18.5492 15.195L19.0406 15.5763L19.1663 15.6737C19.5678 16.0307 19.4026 16.3558 19.0422 16.6364L18.6611 16.9331L13.8753 20.6581C13.291 21.1129 12.679 21.2345 12.679 20.2545V18.7405H12.6787Z" fill="black"/>
</g>
<defs>
<clipPath id="clip0_33_1565">
<rect width="19" height="21" fill="white" transform="translate(0.399414)"/>
</clipPath>
</defs>
</svg>
