<svg width="25" height="25" viewBox="0 0 25 25" fill="none" xmlns="http://www.w3.org/2000/svg">
<path d="M12.5 8C11.9033 8 11.331 8.23705 10.909 8.65901C10.4871 9.08097 10.25 9.65326 10.25 10.25C10.25 10.8467 10.4871 11.419 10.909 11.841C11.331 12.2629 11.9033 12.5 12.5 12.5C13.0967 12.5 13.669 12.2629 14.091 11.841C14.5129 11.419 14.75 10.8467 14.75 10.25C14.75 9.65326 14.5129 9.08097 14.091 8.65901C13.669 8.23705 13.0967 8 12.5 8Z" fill="black"/>
<path fill-rule="evenodd" clip-rule="evenodd" d="M2 5.375C2 4.339 2.84 3.5 3.875 3.5H21.125C22.16 3.5 23 4.34 23 5.375V15.125C23 16.161 22.16 17 21.125 17H3.875C3.62877 17 3.38495 16.9515 3.15747 16.8573C2.92998 16.763 2.72328 16.6249 2.54917 16.4508C2.37506 16.2767 2.23695 16.07 2.14273 15.8425C2.0485 15.615 2 15.3712 2 15.125V5.375ZM8.75 10.25C8.75 9.25544 9.14509 8.30161 9.84835 7.59835C10.5516 6.89509 11.5054 6.5 12.5 6.5C13.4946 6.5 14.4484 6.89509 15.1517 7.59835C15.8549 8.30161 16.25 9.25544 16.25 10.25C16.25 11.2446 15.8549 12.1984 15.1517 12.9017C14.4484 13.6049 13.4946 14 12.5 14C11.5054 14 10.5516 13.6049 9.84835 12.9017C9.14509 12.1984 8.75 11.2446 8.75 10.25ZM19.25 9.5C19.0511 9.5 18.8603 9.57902 18.7197 9.71967C18.579 9.86032 18.5 10.0511 18.5 10.25V10.258C18.5 10.672 18.836 11.008 19.25 11.008H19.258C19.4569 11.008 19.6477 10.929 19.7883 10.7883C19.929 10.6477 20.008 10.4569 20.008 10.258V10.25C20.008 10.0511 19.929 9.86032 19.7883 9.71967C19.6477 9.57902 19.4569 9.5 19.258 9.5H19.25ZM5 10.25C5 10.0511 5.07902 9.86032 5.21967 9.71967C5.36032 9.57902 5.55109 9.5 5.75 9.5H5.758C5.95691 9.5 6.14768 9.57902 6.28833 9.71967C6.42898 9.86032 6.508 10.0511 6.508 10.25V10.258C6.508 10.4569 6.42898 10.6477 6.28833 10.7883C6.14768 10.929 5.95691 11.008 5.758 11.008H5.75C5.55109 11.008 5.36032 10.929 5.21967 10.7883C5.07902 10.6477 5 10.4569 5 10.258V10.25Z" fill="black"/>
<path d="M2.75 18.5C2.55109 18.5 2.36032 18.579 2.21967 18.7197C2.07902 18.8603 2 19.0511 2 19.25C2 19.4489 2.07902 19.6397 2.21967 19.7803C2.36032 19.921 2.55109 20 2.75 20C8.15 20 13.38 20.722 18.35 22.075C19.54 22.399 20.75 21.517 20.75 20.255V19.25C20.75 19.0511 20.671 18.8603 20.5303 18.7197C20.3897 18.579 20.1989 18.5 20 18.5H2.75Z" fill="black"/>
</svg>
