<svg width="20" height="20" viewBox="0 0 20 20" fill="none" xmlns="http://www.w3.org/2000/svg">
<g clip-path="url(#clip0_36_2249)">
<rect x="0.576172" y="0.630859" width="18.8309" height="18.8309" rx="9.41544" fill="white"/>
<path d="M10.0996 1.33333V18.6667M5.76628 14.5962L7.03594 15.5481C8.72739 16.8178 11.4704 16.8178 13.1633 15.5481C14.8562 14.2784 14.8562 12.2216 13.1633 10.9519C12.3183 10.3163 11.2089 10 10.0996 10C9.05239 10 8.00516 9.68222 7.20639 9.04811C5.60883 7.77844 5.60883 5.72156 7.20639 4.45189C8.80394 3.18222 11.3953 3.18222 12.9928 4.45189L13.5923 4.92856M23.0996 10C23.0996 11.7072 22.7634 13.3977 22.11 14.9749C21.4567 16.5521 20.4992 17.9852 19.292 19.1924C18.0848 20.3995 16.6517 21.3571 15.0745 22.0104C13.4973 22.6637 11.8068 23 10.0996 23C8.39242 23 6.70196 22.6637 5.12472 22.0104C3.54749 21.3571 2.11438 20.3995 0.907221 19.1924C-0.299941 17.9852 -1.25751 16.5521 -1.91082 14.9749C-2.56414 13.3977 -2.90039 11.7072 -2.90039 10C-2.90039 6.55219 -1.53075 3.24558 0.907221 0.807612C3.34519 -1.63036 6.65179 -3 10.0996 -3C13.5474 -3 16.854 -1.63036 19.292 0.807612C21.73 3.24558 23.0996 6.55219 23.0996 10Z" stroke="#2C76B7" stroke-width="2" stroke-linecap="round" stroke-linejoin="round"/>
</g>
<defs>
<clipPath id="clip0_36_2249">
<rect x="0.576172" y="0.630859" width="18.8309" height="18.8309" rx="9.41544" fill="white"/>
</clipPath>
</defs>
</svg>
