<svg width="25" height="24" viewBox="0 0 25 24" fill="none" xmlns="http://www.w3.org/2000/svg">
<path fill-rule="evenodd" clip-rule="evenodd" d="M5.84934 9C5.84934 7.20979 6.5605 5.4929 7.82637 4.22703C9.09224 2.96116 10.8091 2.25 12.5993 2.25C14.3896 2.25 16.1064 2.96116 17.3723 4.22703C18.6382 5.4929 19.3493 7.20979 19.3493 9V9.75C19.3493 11.873 20.1493 13.807 21.4673 15.27C21.5494 15.361 21.608 15.4707 21.6379 15.5896C21.6678 15.7084 21.6681 15.8328 21.6388 15.9518C21.6095 16.0708 21.5514 16.1808 21.4698 16.2722C21.3881 16.3636 21.2853 16.4335 21.1703 16.476C19.6263 17.046 18.0103 17.466 16.3393 17.719C16.377 18.2331 16.3082 18.7495 16.1373 19.2359C15.9664 19.7222 15.697 20.1681 15.346 20.5457C14.9951 20.9233 14.57 21.2245 14.0974 21.4304C13.6248 21.6364 13.1149 21.7427 12.5993 21.7427C12.0838 21.7427 11.5738 21.6364 11.1013 21.4304C10.6287 21.2245 10.2036 20.9233 9.85263 20.5457C9.50166 20.1681 9.23231 19.7222 9.06141 19.2359C8.8905 18.7495 8.82172 18.2331 8.85934 17.719C7.21099 17.4692 5.59233 17.0524 4.02834 16.475C3.91347 16.4326 3.81073 16.3627 3.7291 16.2715C3.64746 16.1802 3.58941 16.0703 3.56002 15.9515C3.53062 15.8326 3.53078 15.7084 3.56047 15.5896C3.59016 15.4708 3.64848 15.3611 3.73034 15.27C5.09714 13.7567 5.85242 11.7892 5.84934 9.75V9ZM10.3513 17.9C10.3385 18.2032 10.3872 18.5058 10.4944 18.7897C10.6016 19.0736 10.7652 19.3329 10.9752 19.5519C11.1852 19.771 11.4373 19.9453 11.7164 20.0644C11.9956 20.1835 12.2959 20.2448 12.5993 20.2448C12.9028 20.2448 13.2031 20.1835 13.4822 20.0644C13.7614 19.9453 14.0135 19.771 14.2235 19.5519C14.4335 19.3329 14.597 19.0736 14.7043 18.7897C14.8115 18.5058 14.8601 18.2032 14.8473 17.9C13.3517 18.0347 11.847 18.0347 10.3513 17.9Z" fill="#D7132C"/>
</svg>
