<svg width="46" height="45" viewBox="0 0 46 45" fill="none" xmlns="http://www.w3.org/2000/svg">
<path fill-rule="evenodd" clip-rule="evenodd" d="M4.31836 25.3125C4.31836 21.2099 5.9481 17.2754 8.84905 14.3744C11.75 11.4735 15.6845 9.84375 19.7871 9.84375C20.1601 9.84375 20.5178 9.99191 20.7815 10.2556C21.0452 10.5194 21.1934 10.877 21.1934 11.25V23.9062H33.8496C34.2226 23.9062 34.5803 24.0544 34.844 24.3181C35.1077 24.5819 35.2559 24.9395 35.2559 25.3125C35.2559 29.4151 33.6261 33.3496 30.7252 36.2506C27.8242 39.1515 23.8897 40.7812 19.7871 40.7812C15.6845 40.7812 11.75 39.1515 8.84905 36.2506C5.9481 33.3496 4.31836 29.4151 4.31836 25.3125Z" fill="#C2BAB6"/>
<path fill-rule="evenodd" clip-rule="evenodd" d="M24.0059 5.625C24.0059 5.25204 24.154 4.89435 24.4177 4.63063C24.6815 4.36691 25.0391 4.21875 25.4121 4.21875C29.5147 4.21875 33.4492 5.84849 36.3502 8.74944C39.2511 11.6504 40.8809 15.5849 40.8809 19.6875C40.8809 20.0605 40.7327 20.4181 40.469 20.6819C40.2053 20.9456 39.8476 21.0938 39.4746 21.0938H25.4121C25.0391 21.0938 24.6815 20.9456 24.4177 20.6819C24.154 20.4181 24.0059 20.0605 24.0059 19.6875V5.625Z" fill="#C2BAB6"/>
</svg>
