<svg width="43" height="42" viewBox="0 0 43 42" fill="none" xmlns="http://www.w3.org/2000/svg">
<path fill-rule="evenodd" clip-rule="evenodd" d="M20.4014 15.2675C20.5548 15.0962 20.7628 15 20.9796 15C21.1964 15 21.4044 15.0962 21.5578 15.2675L29.7396 24.4159C29.82 24.4996 29.8845 24.6006 29.9292 24.7128C29.9739 24.8251 29.9979 24.9462 29.9999 25.069C30.0018 25.1919 29.9816 25.3139 29.9405 25.4278C29.8993 25.5417 29.8381 25.6452 29.7604 25.7321C29.6827 25.8189 29.5901 25.8874 29.4882 25.9334C29.3864 25.9794 29.2772 26.002 29.1674 25.9999C29.0575 25.9977 28.9492 25.9708 28.8488 25.9208C28.7485 25.8708 28.6581 25.7987 28.5832 25.7088L20.9796 17.207L13.376 25.7088C13.2209 25.8704 13.0157 25.9584 12.8037 25.9542C12.5918 25.95 12.3895 25.854 12.2396 25.6864C12.0897 25.5188 12.0039 25.2927 12.0001 25.0557C11.9964 24.8187 12.0751 24.5893 12.2196 24.4159L20.4014 15.2675Z" fill="#134569"/>
</svg>
