<svg width="45" height="44" viewBox="0 0 45 44" fill="none" xmlns="http://www.w3.org/2000/svg">
<path fill-rule="evenodd" clip-rule="evenodd" d="M10.2246 16.5C10.2246 13.2179 11.5284 10.0703 13.8492 7.74955C16.1699 5.42879 19.3175 4.125 22.5996 4.125C25.8817 4.125 29.0293 5.42879 31.35 7.74955C33.6708 10.0703 34.9746 13.2179 34.9746 16.5V17.875C34.9746 21.7672 36.4413 25.3128 38.8576 27.995C39.0081 28.1618 39.1155 28.363 39.1703 28.5809C39.225 28.7988 39.2256 29.0268 39.1719 29.2449C39.1181 29.4631 39.0118 29.6648 38.8621 29.8323C38.7124 29.9999 38.5239 30.1282 38.3131 30.206C35.4824 31.251 32.5198 32.021 29.4563 32.4848C29.5252 33.4274 29.3991 34.3741 29.0858 35.2658C28.7725 36.1574 28.2787 36.9749 27.6352 37.6672C26.9918 38.3594 26.2125 38.9116 25.3461 39.2892C24.4797 39.6667 23.5447 39.8616 22.5996 39.8616C21.6545 39.8616 20.7195 39.6667 19.8531 39.2892C18.9867 38.9116 18.2074 38.3594 17.564 37.6672C16.9205 36.9749 16.4267 36.1574 16.1134 35.2658C15.8001 34.3741 15.674 33.4274 15.7429 32.4848C12.721 32.0269 9.75341 31.2627 6.8861 30.2042C6.67551 30.1264 6.48716 29.9983 6.3375 29.831C6.18783 29.6637 6.08141 29.4623 6.02752 29.2444C5.97362 29.0264 5.97391 28.7986 6.02834 28.5809C6.08277 28.3631 6.18969 28.1619 6.33977 27.995C8.84558 25.2206 10.2302 21.6135 10.2246 17.875V16.5ZM18.4783 32.8167C18.4548 33.3725 18.544 33.9274 18.7406 34.4478C18.9371 34.9683 19.2369 35.4436 19.6219 35.8452C20.007 36.2468 20.4692 36.5664 20.9809 36.7847C21.4927 37.003 22.0433 37.1156 22.5996 37.1156C23.1559 37.1156 23.7065 37.003 24.2183 36.7847C24.73 36.5664 25.1922 36.2468 25.5773 35.8452C25.9623 35.4436 26.2621 34.9683 26.4586 34.4478C26.6552 33.9274 26.7444 33.3725 26.7209 32.8167C23.9789 33.0637 21.2203 33.0637 18.4783 32.8167Z" fill="#C2BAB6"/>
</svg>
