<svg width="25" height="24" viewBox="0 0 25 24" fill="none" xmlns="http://www.w3.org/2000/svg">
<path d="M2.84961 8.25H22.3496M2.84961 9H22.3496M5.84961 14.25H11.8496M5.84961 16.5H8.84961M5.09961 19.5H20.0996C20.6963 19.5 21.2686 19.2629 21.6906 18.841C22.1126 18.419 22.3496 17.8467 22.3496 17.25V6.75C22.3496 6.15326 22.1126 5.58097 21.6906 5.15901C21.2686 4.73705 20.6963 4.5 20.0996 4.5H5.09961C4.50287 4.5 3.93058 4.73705 3.50862 5.15901C3.08666 5.58097 2.84961 6.15326 2.84961 6.75V17.25C2.84961 17.8467 3.08666 18.419 3.50862 18.841C3.93058 19.2629 4.50287 19.5 5.09961 19.5Z" stroke="#767676" stroke-width="1.5" stroke-linecap="round" stroke-linejoin="round"/>
</svg>
