<svg width="16" height="15" viewBox="0 0 16 15" fill="none" xmlns="http://www.w3.org/2000/svg">
<path fill-rule="evenodd" clip-rule="evenodd" d="M8.09961 1.40625C4.73398 1.40625 2.00586 4.13437 2.00586 7.5C2.00586 10.8656 4.73398 13.5938 8.09961 13.5938C11.4652 13.5938 14.1934 10.8656 14.1934 7.5C14.1934 4.13437 11.4652 1.40625 8.09961 1.40625ZM8.56836 5.625C8.56836 5.50068 8.51897 5.38145 8.43107 5.29354C8.34316 5.20564 8.22393 5.15625 8.09961 5.15625C7.97529 5.15625 7.85606 5.20564 7.76815 5.29354C7.68025 5.38145 7.63086 5.50068 7.63086 5.625V7.03125H6.22461C6.10029 7.03125 5.98106 7.08064 5.89315 7.16854C5.80525 7.25645 5.75586 7.37568 5.75586 7.5C5.75586 7.62432 5.80525 7.74355 5.89315 7.83146C5.98106 7.91936 6.10029 7.96875 6.22461 7.96875H7.63086V9.375C7.63086 9.49932 7.68025 9.61855 7.76815 9.70646C7.85606 9.79436 7.97529 9.84375 8.09961 9.84375C8.22393 9.84375 8.34316 9.79436 8.43107 9.70646C8.51897 9.61855 8.56836 9.49932 8.56836 9.375V7.96875H9.97461C10.0989 7.96875 10.2182 7.91936 10.3061 7.83146C10.394 7.74355 10.4434 7.62432 10.4434 7.5C10.4434 7.37568 10.394 7.25645 10.3061 7.16854C10.2182 7.08064 10.0989 7.03125 9.97461 7.03125H8.56836V5.625Z" fill="#2C76B7"/>
</svg>
