<svg width="25" height="24" viewBox="0 0 25 24" fill="none" xmlns="http://www.w3.org/2000/svg">
<path fill-rule="evenodd" clip-rule="evenodd" d="M11.0996 3.74989C10.2132 3.74989 9.33544 3.92448 8.5165 4.2637C7.69755 4.60292 6.95343 5.10012 6.32664 5.72692C5.69984 6.35371 5.20264 7.09783 4.86342 7.91678C4.5242 8.73572 4.34961 9.61347 4.34961 10.4999C4.34961 11.3863 4.5242 12.2641 4.86342 13.083C5.20264 13.9019 5.69984 14.6461 6.32664 15.2729C6.95343 15.8997 7.69755 16.3969 8.5165 16.7361C9.33544 17.0753 10.2132 17.2499 11.0996 17.2499C12.8898 17.2499 14.6067 16.5387 15.8726 15.2729C17.1385 14.007 17.8496 12.2901 17.8496 10.4999C17.8496 8.70968 17.1385 6.99279 15.8726 5.72692C14.6067 4.46105 12.8898 3.74989 11.0996 3.74989ZM2.84961 10.4999C2.84978 9.17499 3.16905 7.86961 3.7804 6.69419C4.39175 5.51876 5.2772 4.50787 6.36185 3.74701C7.4465 2.98615 8.69844 2.49771 10.0118 2.32301C11.3251 2.14831 12.6612 2.29249 13.907 2.74334C15.1529 3.1942 16.2718 3.93847 17.1692 4.91321C18.0665 5.88794 18.7159 7.06446 19.0624 8.34325C19.409 9.62204 19.4424 10.9655 19.1599 12.2599C18.8774 13.5544 18.2874 14.7617 17.4396 15.7799L22.1296 20.4699C22.2033 20.5386 22.2624 20.6214 22.3034 20.7134C22.3444 20.8053 22.3664 20.9047 22.3682 21.0054C22.37 21.1061 22.3515 21.2061 22.3137 21.2995C22.276 21.3929 22.2199 21.4777 22.1486 21.5489C22.0774 21.6201 21.9926 21.6763 21.8992 21.714C21.8058 21.7517 21.7058 21.7703 21.6051 21.7685C21.5044 21.7667 21.4051 21.7447 21.3131 21.7037C21.2211 21.6627 21.1383 21.6036 21.0696 21.5299L16.3796 16.8399C15.1748 17.8434 13.709 18.4828 12.1539 18.6831C10.5988 18.8835 9.01883 18.6366 7.59902 17.9713C6.17921 17.306 4.97839 16.2499 4.13724 14.9266C3.29609 13.6034 2.84944 12.0678 2.84961 10.4999Z" fill="#6B6B6B"/>
</svg>
