<svg width="48" height="47" viewBox="0 0 48 47" fill="none" xmlns="http://www.w3.org/2000/svg">
<path d="M21.0927 17.128C21.5372 16.7755 22.066 16.519 22.6319 16.3564V21.83C22.0733 21.677 21.5503 21.4155 21.0927 21.0604C20.3211 20.4474 20.0234 19.7267 20.0234 19.0942C20.0234 18.4617 20.3211 17.741 21.0927 17.128ZM25.5694 30.6719V25.1415C26.249 25.308 26.8698 25.588 27.3731 25.966C28.2093 26.5927 28.5069 27.3094 28.5069 27.9067C28.5069 28.504 28.2093 29.2207 27.3731 29.8474C26.8333 30.2401 26.2198 30.5218 25.5694 30.6719Z" fill="#CBC3B9"/>
<path fill-rule="evenodd" clip-rule="evenodd" d="M24.0996 4.40625C13.554 4.40625 5.00586 12.9544 5.00586 23.5C5.00586 34.0456 13.554 42.5938 24.0996 42.5938C34.6452 42.5938 43.1934 34.0456 43.1934 23.5C43.1934 12.9544 34.6452 4.40625 24.0996 4.40625ZM25.5684 11.75C25.5684 11.3605 25.4136 10.9869 25.1382 10.7114C24.8627 10.436 24.4891 10.2812 24.0996 10.2812C23.7101 10.2812 23.3365 10.436 23.061 10.7114C22.7856 10.9869 22.6309 11.3605 22.6309 11.75V13.348C21.4027 13.5547 20.2452 14.0634 19.2625 14.8285C17.8682 15.9369 17.0849 17.4722 17.0849 19.0938C17.0849 20.7172 17.8682 22.2506 19.2645 23.359C20.2476 24.1423 21.4226 24.626 22.6309 24.8395V30.6714C21.9803 30.5206 21.3669 30.2402 20.8272 29.847L19.1059 28.5545C18.9516 28.4387 18.776 28.3545 18.5891 28.3067C18.4023 28.2588 18.2078 28.2482 18.0169 28.2755C17.6313 28.3306 17.2833 28.5366 17.0496 28.8482C16.8159 29.1598 16.7155 29.5515 16.7706 29.9372C16.8257 30.3228 17.0317 30.6707 17.3434 30.9045L19.0647 32.197C20.1085 32.9803 21.354 33.4601 22.6309 33.6657V35.25C22.6309 35.6395 22.7856 36.0131 23.061 36.2886C23.3365 36.564 23.7101 36.7188 24.0996 36.7188C24.4891 36.7188 24.8627 36.564 25.1382 36.2886C25.4136 36.0131 25.5684 35.6395 25.5684 35.25V33.6638C26.8581 33.4699 28.0816 32.9667 29.1345 32.197C30.5934 31.1023 31.4434 29.565 31.4434 27.9062C31.4434 26.2475 30.5934 24.7103 29.1345 23.6155C28.0819 22.845 26.8583 22.341 25.5684 22.1468V16.3599C26.1363 16.5205 26.6631 16.777 27.1076 17.1295L27.9203 17.7758C28.2255 18.0181 28.6143 18.1292 29.0014 18.0848C29.3885 18.0404 29.7421 17.844 29.9844 17.5388C30.2267 17.2337 30.3378 16.8448 30.2934 16.4577C30.249 16.0706 30.0526 15.717 29.7474 15.4748L28.9347 14.8285C27.9524 14.0644 26.7956 13.5564 25.5684 13.35V11.75Z" fill="#CBC3B9"/>
</svg>
