<svg width="41" height="29" viewBox="0 0 41 29" fill="none" xmlns="http://www.w3.org/2000/svg">
<g clip-path="url(#clip0_32_954)">
<path fill-rule="evenodd" clip-rule="evenodd" d="M26.6845 19.2348C27.6571 19.2348 28.5212 19.6936 29.0602 20.3993C29.5992 19.6906 30.4634 19.2348 31.436 19.2348C33.071 19.2348 34.3958 20.5286 34.3958 22.1253C34.3958 23.7219 33.071 25.0157 31.436 25.0157C30.4634 25.0157 29.5992 24.557 29.0602 23.8513C28.5212 24.56 27.6571 25.0157 26.6845 25.0157C25.0495 25.0157 23.7246 23.7219 23.7246 22.1253C23.7246 20.5286 25.0495 19.2348 26.6845 19.2348ZM2.63509 6H35.5641C36.1242 6 36.6331 6.22347 37.0004 6.5822C37.3678 6.94094 37.5966 7.44081 37.5966 7.98479V27.0093C37.5966 27.5562 37.3678 28.0532 37.0004 28.4119C36.6331 28.7706 36.1242 28.9971 35.5641 28.9971H2.63509C2.07503 28.9971 1.56616 28.7736 1.19881 28.4149C0.828451 28.0561 0.599609 27.5592 0.599609 27.0123V7.98773C0.599609 7.44081 0.828451 6.94388 1.1958 6.5822C1.56616 6.22347 2.07503 6 2.63509 6ZM5.61605 21.1902C5.29085 21.1902 5.02588 20.9315 5.02588 20.6139C5.02588 20.2963 5.29085 20.0376 5.61605 20.0376H15.5375C15.8627 20.0376 16.1277 20.2963 16.1277 20.6139C16.1277 20.9315 15.8627 21.1902 15.5375 21.1902H5.61605ZM5.61605 24.213C5.29085 24.213 5.02588 23.9542 5.02588 23.6367C5.02588 23.3191 5.29085 23.0603 5.61605 23.0603H12.3097C12.6348 23.0603 12.8998 23.3191 12.8998 23.6367C12.8998 23.9542 12.6348 24.213 12.3097 24.213H5.61605ZM1.77694 10.2813H36.4193V7.98773C36.4193 7.75837 36.3229 7.5496 36.1663 7.3967C36.0098 7.2438 35.796 7.14971 35.5611 7.14971H2.63509C2.40023 7.14971 2.18644 7.2438 2.02987 7.3967C1.87329 7.5496 1.77694 7.75837 1.77694 7.98773V10.2813ZM36.4223 15.9945H1.77694V27.0123C1.77694 27.2416 1.87329 27.4504 2.02987 27.6033C2.18644 27.7562 2.40023 27.8503 2.63509 27.8503H35.5641C35.799 27.8503 36.0128 27.7562 36.1694 27.6033C36.3259 27.4504 36.4223 27.2416 36.4223 27.0123V15.9945Z" fill="#9A9A99"/>
</g>
<g clip-path="url(#clip1_32_954)">
<path d="M10.1119 14.1212C9.44081 14.7658 9.42567 15.8277 10.0791 16.4923C10.7299 17.1569 11.8021 17.1719 12.4732 16.5248L19.4487 9.78378L25.2814 15.358C25.955 16.0001 27.0272 15.9801 27.6755 15.313L37.2041 5.76364V10.5783C37.2041 11.5078 37.9634 12.2598 38.9019 12.2598C39.8404 12.2598 40.5997 11.5078 40.5997 10.5783V1.67605H40.5947C40.5947 1.2413 40.4257 0.809055 40.0901 0.481748C39.7344 0.134452 39.2601 -0.025454 38.796 0.00452834H30.3875C29.449 0.00452834 28.6897 0.756586 28.6897 1.68604C28.6897 2.61549 29.449 3.36755 30.3875 3.36755H34.8352L26.4267 11.7926L20.6167 6.23836C19.9608 5.61373 18.9189 5.61123 18.263 6.24586L10.1119 14.1212Z" fill="#2B71BB"/>
</g>
<defs>
<clipPath id="clip0_32_954">
<rect width="37" height="23" fill="white" transform="translate(0.599609 6)"/>
</clipPath>
<clipPath id="clip1_32_954">
<rect width="31" height="17" fill="white" transform="translate(9.59961)"/>
</clipPath>
</defs>
</svg>
