<svg width="34" height="33" viewBox="0 0 34 33" fill="none" xmlns="http://www.w3.org/2000/svg">
<path d="M14.9881 12.0261C15.3002 11.7786 15.6714 11.5985 16.0688 11.4844V15.3275C15.6766 15.2201 15.3093 15.0365 14.9881 14.7871C14.4463 14.3567 14.2373 13.8507 14.2373 13.4066C14.2373 12.9625 14.4463 12.4565 14.9881 12.0261ZM18.1313 21.5356V17.6526C18.6084 17.7695 19.0443 17.9661 19.3977 18.2315C19.9848 18.6715 20.1938 19.1747 20.1938 19.5941C20.1938 20.0135 19.9848 20.5168 19.3977 20.9567C19.0187 21.2325 18.588 21.4303 18.1313 21.5356Z" fill="black"/>
<path fill-rule="evenodd" clip-rule="evenodd" d="M17.0996 3.09375C9.69523 3.09375 3.69336 9.09562 3.69336 16.5C3.69336 23.9044 9.69523 29.9062 17.0996 29.9062C24.504 29.9062 30.5059 23.9044 30.5059 16.5C30.5059 9.09562 24.504 3.09375 17.0996 3.09375ZM18.1309 8.25C18.1309 7.9765 18.0222 7.71419 17.8288 7.5208C17.6354 7.3274 17.3731 7.21875 17.0996 7.21875C16.8261 7.21875 16.5638 7.3274 16.3704 7.5208C16.177 7.71419 16.0684 7.9765 16.0684 8.25V9.372C15.206 9.5171 14.3933 9.87432 13.7034 10.4115C12.7244 11.1897 12.1744 12.2677 12.1744 13.4062C12.1744 14.5461 12.7244 15.6228 13.7047 16.401C14.395 16.951 15.22 17.2906 16.0684 17.4405V21.5352C15.6116 21.4294 15.1809 21.2325 14.802 20.9564L13.5934 20.0489C13.485 19.9676 13.3617 19.9085 13.2305 19.8749C13.0994 19.8413 12.9628 19.8338 12.8288 19.853C12.558 19.8917 12.3137 20.0363 12.1496 20.2551C11.9855 20.4739 11.915 20.749 11.9537 21.0197C11.9924 21.2905 12.1371 21.5348 12.3559 21.6989L13.5645 22.6064C14.2974 23.1564 15.1719 23.4932 16.0684 23.6376V24.75C16.0684 25.0235 16.177 25.2858 16.3704 25.4792C16.5638 25.6726 16.8261 25.7812 17.0996 25.7812C17.3731 25.7812 17.6354 25.6726 17.8288 25.4792C18.0222 25.2858 18.1309 25.0235 18.1309 24.75V23.6363C19.0364 23.5002 19.8955 23.1468 20.6347 22.6064C21.6591 21.8377 22.2559 20.7584 22.2559 19.5938C22.2559 18.4291 21.6591 17.3498 20.6347 16.5811C19.8957 16.0401 19.0365 15.6863 18.1309 15.5499V11.4867C18.5296 11.5995 18.8995 11.7796 19.2116 12.0271L19.7822 12.4809C19.9965 12.651 20.2695 12.729 20.5413 12.6978C20.8131 12.6666 21.0614 12.5287 21.2315 12.3145C21.4016 12.1003 21.4796 11.8272 21.4484 11.5554C21.4172 11.2836 21.2794 11.0354 21.0651 10.8653L20.4945 10.4115C19.8048 9.87501 18.9926 9.51829 18.1309 9.37337V8.25Z" fill="black"/>
</svg>
