<svg width="16" height="15" viewBox="0 0 16 15" fill="none" xmlns="http://www.w3.org/2000/svg">
<path fill-rule="evenodd" clip-rule="evenodd" d="M3.5492 2.48084C3.63709 2.39306 3.75623 2.34375 3.88045 2.34375C4.00467 2.34375 4.12381 2.39306 4.2117 2.48084L8.8992 7.16834C8.98698 7.25623 9.03628 7.37537 9.03628 7.49959C9.03628 7.62381 8.98698 7.74295 8.8992 7.83084L4.2117 12.5183C4.12284 12.6011 4.00531 12.6462 3.88387 12.6441C3.76243 12.6419 3.64657 12.5927 3.56068 12.5069C3.4748 12.421 3.42561 12.3051 3.42346 12.1837C3.42132 12.0622 3.4664 11.9447 3.5492 11.8558L7.90545 7.49959L3.5492 3.14334C3.46142 3.05545 3.41211 2.93631 3.41211 2.81209C3.41211 2.68787 3.46142 2.56873 3.5492 2.48084ZM7.2992 2.48084C7.38709 2.39306 7.50623 2.34375 7.63045 2.34375C7.75467 2.34375 7.87381 2.39306 7.9617 2.48084L12.6492 7.16834C12.737 7.25623 12.7863 7.37537 12.7863 7.49959C12.7863 7.62381 12.737 7.74295 12.6492 7.83084L7.9617 12.5183C7.91878 12.5644 7.86703 12.6013 7.80953 12.627C7.75203 12.6526 7.68996 12.6663 7.62702 12.6675C7.56408 12.6686 7.50157 12.657 7.4432 12.6334C7.38483 12.6098 7.33181 12.5747 7.2873 12.5302C7.24279 12.4857 7.2077 12.4327 7.18412 12.3743C7.16054 12.316 7.14897 12.2535 7.15008 12.1905C7.15119 12.1276 7.16496 12.0655 7.19058 12.008C7.2162 11.9505 7.25314 11.8988 7.2992 11.8558L11.6554 7.49959L7.2992 3.14334C7.21142 3.05545 7.16211 2.93631 7.16211 2.81209C7.16211 2.68787 7.21142 2.56873 7.2992 2.48084Z" fill="white"/>
</svg>
