<svg width="23" height="22" viewBox="0 0 23 22" fill="none" xmlns="http://www.w3.org/2000/svg">
<path fill-rule="evenodd" clip-rule="evenodd" d="M11.6145 2.00293C6.82106 2.00293 2.93555 5.88844 2.93555 10.6819C2.93555 15.4754 6.82106 19.3609 11.6145 19.3609C16.408 19.3609 20.2935 15.4754 20.2935 10.6819C20.2935 5.88844 16.408 2.00293 11.6145 2.00293ZM12.2821 8.01145C12.2821 7.83439 12.2118 7.66458 12.0866 7.53938C11.9614 7.41418 11.7916 7.34384 11.6145 7.34384C11.4375 7.34384 11.2677 7.41418 11.1425 7.53938C11.0172 7.66458 10.9469 7.83439 10.9469 8.01145V10.0143H8.94407C8.76701 10.0143 8.5972 10.0846 8.472 10.2098C8.34679 10.335 8.27646 10.5048 8.27646 10.6819C8.27646 10.859 8.34679 11.0288 8.472 11.154C8.5972 11.2792 8.76701 11.3495 8.94407 11.3495H10.9469V13.3524C10.9469 13.5294 11.0172 13.6992 11.1425 13.8244C11.2677 13.9496 11.4375 14.02 11.6145 14.02C11.7916 14.02 11.9614 13.9496 12.0866 13.8244C12.2118 13.6992 12.2821 13.5294 12.2821 13.3524V11.3495H14.285C14.462 11.3495 14.6319 11.2792 14.7571 11.154C14.8823 11.0288 14.9526 10.859 14.9526 10.6819C14.9526 10.5048 14.8823 10.335 14.7571 10.2098C14.6319 10.0846 14.462 10.0143 14.285 10.0143H12.2821V8.01145Z" fill="#2C76B7"/>
</svg>
