<svg width="25" height="24" viewBox="0 0 25 24" fill="none" xmlns="http://www.w3.org/2000/svg">
<path fill-rule="evenodd" clip-rule="evenodd" d="M12.4726 22.351L12.5426 22.391L12.5706 22.407C12.6817 22.467 12.8059 22.4985 12.9321 22.4985C13.0583 22.4985 13.1826 22.467 13.2936 22.407L13.3216 22.392L13.3926 22.351C13.7837 22.1191 14.1654 21.8716 14.5366 21.609C15.4977 20.9305 16.3957 20.1667 17.2196 19.327C19.1636 17.337 21.1826 14.347 21.1826 10.5C21.1826 8.31196 20.3134 6.21354 18.7662 4.66637C17.2191 3.11919 15.1207 2.25 12.9326 2.25C10.7446 2.25 8.64616 3.11919 7.09899 4.66637C5.55181 6.21354 4.68262 8.31196 4.68262 10.5C4.68262 14.346 6.70262 17.337 8.64562 19.327C9.46926 20.1667 10.3669 20.9304 11.3276 21.609C11.6992 21.8716 12.0812 22.1191 12.4726 22.351ZM12.9326 13.5C13.7283 13.5 14.4913 13.1839 15.0539 12.6213C15.6165 12.0587 15.9326 11.2956 15.9326 10.5C15.9326 9.70435 15.6165 8.94129 15.0539 8.37868C14.4913 7.81607 13.7283 7.5 12.9326 7.5C12.137 7.5 11.3739 7.81607 10.8113 8.37868C10.2487 8.94129 9.93262 9.70435 9.93262 10.5C9.93262 11.2956 10.2487 12.0587 10.8113 12.6213C11.3739 13.1839 12.137 13.5 12.9326 13.5Z" fill="#124E89"/>
</svg>
