<svg width="21" height="21" viewBox="0 0 21 21" fill="none" xmlns="http://www.w3.org/2000/svg">
<g clip-path="url(#clip0_21_83)">
<path d="M14.3998 12.6381C15.2998 11.3446 15.8998 9.75254 15.8998 8.061C15.8998 3.9814 12.1998 0.299805 8.0998 0.299805C3.9998 0.299805 0.299805 4.0809 0.299805 8.1605C0.299805 12.2401 3.9998 15.9217 8.0998 15.9217C9.69981 15.9217 11.3998 15.3247 12.6998 14.4292L18.5998 20.2998L20.2998 18.6083C16.8998 15.2252 14.3998 12.6381 14.3998 12.6381ZM8.0998 13.8321C4.89981 13.8321 2.2998 11.2451 2.2998 8.061C2.2998 4.87692 4.89981 2.38936 8.0998 2.38936C11.2998 2.38936 13.8998 4.97642 13.8998 8.061C13.8998 11.1456 11.1998 13.8321 8.0998 13.8321Z" fill="#646464"/>
</g>
<defs>
<clipPath id="clip0_21_83">
<rect width="20" height="20" fill="white" transform="translate(0.299805 0.299805)"/>
</clipPath>
</defs>
</svg>
