<svg width="16" height="13" viewBox="0 0 16 13" fill="none" xmlns="http://www.w3.org/2000/svg">
<g clip-path="url(#clip0_35_2129)">
<path d="M1.07561 0.955349C0.8193 0.955349 0.599609 0.737674 0.599609 0.471628C0.599609 0.217674 0.8193 0 1.07561 0H2.32052C2.33273 0 2.35714 0 2.36934 0C2.80872 0.012093 3.19928 0.0967442 3.52882 0.302326C3.89497 0.532093 4.16348 0.882791 4.30994 1.40279C4.30994 1.41488 4.30994 1.42698 4.32215 1.43907L4.4442 1.92279H15.1236C15.3921 1.92279 15.5996 2.14047 15.5996 2.39442C15.5996 2.44279 15.5874 2.49116 15.5752 2.53953L14.3303 7.50977C14.2815 7.72744 14.0862 7.87256 13.8665 7.87256H6.05526C6.22614 8.5014 6.39701 8.84 6.6289 8.99721C6.90962 9.17861 7.39782 9.1907 8.21556 9.17861H8.22776H13.7444C14.013 9.17861 14.2204 9.39628 14.2204 9.65023C14.2204 9.91628 14.0007 10.1219 13.7444 10.1219H8.22776C7.21474 10.134 6.59229 10.1098 6.09188 9.78326C5.57927 9.44465 5.31076 8.86419 5.04225 7.81209L3.40677 1.68093C3.40677 1.66884 3.40677 1.66884 3.39456 1.65674C3.32133 1.3907 3.19928 1.2093 3.02841 1.11256C2.85754 1.00372 2.62565 0.955349 2.35714 0.955349C2.34493 0.955349 2.33273 0.955349 2.32052 0.955349H1.07561ZM12.3165 10.6781C12.9633 10.6781 13.4881 11.1981 13.4881 11.8391C13.4881 12.48 12.9633 13 12.3165 13C11.6696 13 11.1448 12.48 11.1448 11.8391C11.1448 11.1981 11.6696 10.6781 12.3165 10.6781ZM7.17813 10.6781C7.825 10.6781 8.34981 11.1981 8.34981 11.8391C8.34981 12.48 7.825 13 7.17813 13C6.53126 13 6.00644 12.48 6.00644 11.8391C6.00644 11.1981 6.53126 10.6781 7.17813 10.6781ZM4.71271 2.86605L5.79896 6.91721H13.5003L14.5134 2.86605H4.71271Z" fill="white"/>
</g>
<defs>
<clipPath id="clip0_35_2129">
<rect width="15" height="13" fill="white" transform="translate(0.599609)"/>
</clipPath>
</defs>
</svg>
