<svg width="42" height="24" viewBox="0 0 42 24" fill="none" xmlns="http://www.w3.org/2000/svg">
<g clip-path="url(#clip0_32_943)">
<path fill-rule="evenodd" clip-rule="evenodd" d="M1.45399 22.2743H5.68891C5.37608 22.1926 5.14062 21.8999 5.14062 21.5595V0.738619C5.14062 0.33357 5.47027 0 5.87055 0H36.4703C36.8705 0 37.2002 0.33357 37.2002 0.738619V21.5561C37.2002 21.8999 36.9681 22.1892 36.6519 22.2709H41.0786C41.5495 22.2709 41.9329 22.6589 41.9329 23.1354C41.9329 23.612 41.5495 24 41.0786 24H1.45399C0.983073 24 0.599609 23.612 0.599609 23.1354C0.599609 22.6623 0.983073 22.2743 1.45399 22.2743ZM16.2039 7.54276L16.2409 7.4883L15.3192 7.62105C15.1679 7.64147 15.0266 7.60062 14.9156 7.51553C14.8046 7.43044 14.7238 7.30109 14.7037 7.15133C14.6835 6.99816 14.7238 6.8552 14.8079 6.74287C14.892 6.63055 15.0199 6.54886 15.1679 6.52844L17.5561 6.18806H17.5628C17.5763 6.18465 17.5931 6.18465 17.6066 6.18465C17.7546 6.18125 17.8925 6.23571 17.9934 6.33102C18.0943 6.42632 18.1616 6.56247 18.1683 6.71224C18.2019 7.53936 18.2322 8.36988 18.2558 9.2004C18.2625 9.35016 18.2053 9.48972 18.1111 9.59523C18.0169 9.69735 17.8824 9.76542 17.731 9.77223H17.7243C17.5763 9.77904 17.4384 9.72117 17.3341 9.62587C17.2332 9.53056 17.1659 9.39441 17.1592 9.24465C17.1457 8.87704 17.1323 8.51283 17.1188 8.14523C17.0414 8.26096 16.9607 8.3869 16.8834 8.52645C16.6176 9.00298 16.4293 9.51354 16.3182 10.0377C16.2039 10.5653 16.1702 11.1099 16.2173 11.6443C16.2644 12.1719 16.3855 12.6961 16.5907 13.1896C16.7858 13.6695 17.0583 14.1257 17.4014 14.5409C17.5292 14.6941 17.6604 14.8404 17.7983 14.9732C17.9362 15.1093 18.0808 15.2421 18.2288 15.3612C18.5618 15.6301 18.9117 15.8582 19.2783 16.0352C19.6517 16.2156 20.0385 16.3517 20.4321 16.4368L20.5599 16.464V17.5873L20.3648 17.5499C19.8569 17.4545 19.3624 17.2912 18.8814 17.0665C18.4138 16.8453 17.9631 16.5628 17.5393 16.219C17.3644 16.076 17.1962 15.9263 17.0314 15.7629C16.8699 15.6029 16.7152 15.4327 16.5604 15.2489C16.14 14.7451 15.8137 14.1903 15.5749 13.6083C15.3293 13.0058 15.178 12.3761 15.1241 11.7362C15.0669 11.0895 15.1107 10.436 15.2452 9.79946C15.3798 9.16976 15.6085 8.55708 15.9281 7.98185C16.0222 7.81847 16.1131 7.67551 16.2039 7.54276ZM23.9169 17.1584C23.4796 17.3456 23.0289 17.4784 22.5748 17.5601L22.383 17.5941V16.4743L22.5142 16.447C22.8472 16.379 23.1769 16.2734 23.4998 16.1373C23.816 16.0011 24.1221 15.8309 24.4181 15.6301L24.5291 15.5518L25.3095 16.3415L25.1514 16.4538C24.7612 16.7398 24.3474 16.9746 23.9169 17.1584ZM27.4017 13.6423C27.2201 14.0814 26.9846 14.5001 26.7054 14.8881L26.5944 15.0447L25.814 14.255L25.8914 14.1427C26.0898 13.8499 26.258 13.5402 26.3959 13.2168C26.5305 12.8935 26.6348 12.5565 26.702 12.2127L26.7289 12.08H27.8322L27.7986 12.274C27.7212 12.7437 27.5867 13.2032 27.4017 13.6423ZM27.6573 9.49993C27.7078 9.68373 27.7482 9.86413 27.7818 10.0479L27.8188 10.2454H26.7121L26.6852 10.116C26.6583 9.98667 26.6247 9.85732 26.5877 9.73139C26.5507 9.60204 26.5103 9.4761 26.4632 9.35016C26.3858 9.14253 26.2984 8.93831 26.2042 8.74089C26.1067 8.54347 26.0024 8.35626 25.8914 8.17586L25.8207 8.06354L26.6045 7.27046L26.7155 7.43724C26.8702 7.6687 27.0115 7.91377 27.1393 8.16905C27.2671 8.42434 27.3849 8.68983 27.4858 8.96213C27.5497 9.14253 27.6069 9.32293 27.6573 9.49993ZM24.2364 5.27585C24.5762 5.43242 24.8924 5.61963 25.1884 5.83407L25.3465 5.94639L24.5661 6.73607L24.4551 6.65778C24.2263 6.5012 23.9842 6.36505 23.7285 6.24933C23.4762 6.137 23.2139 6.0485 22.938 5.98043C22.8136 5.94979 22.6858 5.92256 22.5478 5.90214C22.4167 5.88172 22.2855 5.8681 22.1543 5.85789C22.0197 5.84768 21.8818 5.84768 21.7473 5.84768C21.6127 5.85108 21.4748 5.8613 21.3302 5.87831C21.1822 5.89533 21.0375 5.84768 20.9299 5.75918C20.8223 5.67068 20.7449 5.53794 20.7281 5.38817C20.7113 5.23841 20.7584 5.09204 20.8458 4.98312C20.9333 4.8742 21.0645 4.79592 21.2125 4.7789C21.384 4.76188 21.5522 4.74826 21.7237 4.74486C21.8953 4.74145 22.0601 4.74486 22.2216 4.75507C22.3864 4.76528 22.5479 4.7823 22.7059 4.80613C22.864 4.82995 23.0289 4.86399 23.1937 4.90484C23.5603 5.00014 23.9068 5.12608 24.2364 5.27585ZM6.38856 1.15728H36.0532V21.3485H6.38856V1.15728ZM20.0654 22.5976H22.4671C22.6925 22.5976 22.8775 22.7849 22.8775 23.0129C22.8775 23.241 22.6925 23.4282 22.4671 23.4282H20.0654C19.8401 23.4282 19.6551 23.241 19.6551 23.0129C19.6551 22.7814 19.8401 22.5976 20.0654 22.5976Z" fill="#1C5981"/>
</g>
<defs>
<clipPath id="clip0_32_943">
<rect width="41.3333" height="24" fill="white" transform="translate(0.599609)"/>
</clipPath>
</defs>
</svg>
