<svg width="29" height="29" viewBox="0 0 29 29" fill="none" xmlns="http://www.w3.org/2000/svg">
<g clip-path="url(#clip0_21_117)">
<path d="M27.2002 27.4614C27.2002 27.1363 27.4673 26.8691 27.8157 26.8691C28.1641 26.8691 28.4313 27.1363 28.4313 27.4614C28.4313 27.7866 28.1641 28.077 27.8157 28.077C27.4673 28.0537 27.2002 27.7866 27.2002 27.4614ZM27.3047 27.4614C27.3047 27.7286 27.5254 27.9492 27.8157 27.9492C28.0828 27.9492 28.3035 27.7402 28.3035 27.4614C28.3035 27.1943 28.0828 26.9853 27.8157 26.9853C27.537 26.9853 27.3047 27.1943 27.3047 27.4614Z" fill="#243B7A"/>
<path d="M28.1299 27.8099H28.0021L27.7931 27.4963H27.6885V27.8099H27.5956V27.1363H27.9092C27.9673 27.1363 28.037 27.1363 28.0718 27.1828C28.1299 27.206 28.1531 27.2641 28.1531 27.3221C28.1531 27.4499 28.0486 27.508 27.9324 27.508L28.1299 27.8099ZM27.8047 27.3918C27.9092 27.3918 28.0254 27.4151 28.0254 27.2873C28.0254 27.206 27.9441 27.1828 27.8628 27.1828H27.7001V27.3918H27.8047ZM8.58226 10.9236C7.98991 10.8306 7.39756 10.819 6.74713 10.9236L6.57291 10.5635C7.14203 10.1106 8.26866 10.1338 8.77971 10.5635L8.58226 10.9236ZM28.1415 21.3062C26.4109 26.335 26.6432 27.3454 26.6781 28.1003H21.7418C21.9392 27.6473 22.8336 26.033 23.0426 24.5C22.822 24.6974 21.7882 25.4872 20.348 24.9181C19.8021 26.2885 18.8846 27.8099 18.7219 28.0886H14.3548C14.8426 27.2641 16.0157 25.8124 16.5848 23.6406L15.3188 23.7451L15.2375 22.7696L14.4709 22.8276C14.378 24.1284 14.2619 25.6265 14.2619 25.6265C13.4721 25.7311 12.4267 25.8588 11.5208 25.8588C11.1491 25.8588 9.91796 25.9169 8.6868 24.8252C7.94345 24.2097 7.06073 23.4315 6.17801 22.6418C6.10832 24.5116 5.69019 27.6241 5.63211 28.0886H1.62502C2.01993 25.8472 2.53098 25.3594 1.52049 20.8765C1.35789 20.1565 1.39273 19.2274 1.79925 18.5073C0.614541 16.9859 0.254484 15.2206 0.742304 13.3276C1.19528 11.632 2.00831 9.05374 2.63551 7.23039L1.42757 7.09102C1.40434 6.6497 1.72956 6.01095 2.1593 5.65092C1.55534 4.90764 1.31143 4.14114 1.31143 3.4327C1.39273 0.262152 4.62163 0.296991 5.72503 0.331832C4.97007 1.51643 4.64486 2.60812 5.00492 2.8404C5.36498 3.07267 6.18962 2.48037 7.54855 2.48037C8.90747 2.48037 9.74374 3.07267 10.0922 2.8404C10.4522 2.60812 10.127 1.51643 9.37207 0.331832C10.4755 0.296991 13.7044 0.250538 13.7857 3.4327C13.7857 4.14114 13.5534 4.93087 13.0075 5.59285C13.3559 6.01095 13.6695 6.60325 13.7392 7.07941L12.3222 7.10264C12.601 7.63687 12.8333 8.04335 12.8797 8.11303C13.925 9.95961 14.9007 11.3997 15.7602 12.3404C17.6302 14.3612 20.2899 15.2206 22.1599 15.3484C24.2622 15.4878 25.505 15.0813 25.9579 14.0825C26.2483 13.4553 26.2367 12.8514 25.9463 12.2707C25.3191 11.0513 23.4143 10.0874 20.6151 9.55313C18.0715 9.07697 16.2364 8.33369 15.5976 6.26645V6.25483C15.586 6.19677 15.2375 4.96571 16.0157 3.90886C16.6661 3.03783 17.8624 2.59651 19.5582 2.59651H28.6409C28.5945 2.67781 27.9208 4.04823 27.0613 4.9541C26.016 6.03418 25.0055 6.37097 24.1576 6.37097C22.7639 6.37097 21.9508 5.55801 21.3004 4.90764C20.7313 4.33857 20.348 3.97854 19.7789 3.95532C19.6395 3.95532 17.7695 3.86241 17.1191 4.72182C16.7474 5.2096 16.8868 5.82513 16.91 5.8832C17.3049 7.13748 18.3387 7.75301 20.8707 8.22917C23.1588 8.65888 26.0973 9.59959 27.1659 11.6552C27.6537 12.5959 27.6653 13.6528 27.2123 14.6516C26.7129 15.7316 25.7024 16.3936 24.2157 16.6259C25.261 17.7524 25.5166 18.7628 26.2483 19.8081C26.5154 20.2378 27.1659 20.8649 28.1415 21.3062ZM22.2528 3.99016C22.8452 4.58246 23.3098 5.05862 24.146 5.05862C24.9591 5.05862 25.656 4.52439 26.1438 3.99016H22.2528ZM4.84231 21.434C4.61002 21.2249 3.15817 19.8894 2.83296 19.599C2.49613 20.47 3.98282 23.5709 3.28593 26.7415H4.44741C4.66809 24.9413 4.912 22.4211 4.84231 21.434ZM19.2098 24.1168C19.0355 23.9193 18.8729 23.6987 18.7452 23.4548L17.9902 23.5245C17.6882 24.8716 17.1888 25.9633 16.7707 26.7415H17.9321C18.3038 26.1027 18.8265 25.0807 19.2098 24.1168ZM22.3806 23.2341C21.9044 23.0134 20.2202 22.7115 19.837 22.5954C19.988 23.0367 20.4293 23.6057 21.0914 23.7451C21.765 23.8729 22.2064 23.478 22.3806 23.2341ZM26.5038 21.9334C25.4237 21.132 25.0752 20.6675 24.3551 19.3087C23.8673 18.3912 23.2052 16.9395 21.3817 16.6491C19.3259 16.3588 16.701 15.36 14.7845 13.2928C14.5987 13.0837 14.4013 12.863 14.2154 12.6308C14.2503 13.4553 14.0644 14.5935 13.5534 15.5226L12.4964 14.5935C12.659 14.2102 12.7868 13.7573 12.8333 13.2347C12.9494 11.9107 12.5661 10.4126 11.6834 8.77502C11.6486 8.70533 10.9749 7.48589 10.6032 6.74261L9.33722 8.56597L9.54629 9.2744L9.03524 10.1454C8.32674 9.97123 7.08396 9.97123 6.35223 10.1454L5.92248 9.2744H8.43127C8.43127 9.2744 8.58226 8.91438 8.47773 8.48467C8.11767 6.9865 8.2222 5.43026 10.1619 5.39542C10.3245 5.39542 10.5452 5.41865 10.7426 5.40703C11.9041 5.37219 12.4384 4.23405 12.4384 3.46754C12.4384 2.63135 11.8112 1.84162 11.1607 1.74871C11.4395 2.25971 11.393 3.0959 11.242 3.4327C11.0911 3.75788 10.6845 4.25727 9.98765 4.25727C9.52306 4.25727 8.71002 3.88563 7.54855 3.88563C6.38707 3.88563 5.56243 4.25727 5.10945 4.25727C4.42418 4.25727 4.00605 3.75788 3.85506 3.4327C3.69245 3.0959 3.65761 2.25971 3.93636 1.74871C3.29755 1.83 2.64712 2.61974 2.65874 3.46754C2.67035 4.44309 3.51823 5.49994 4.61002 5.69738C4.50548 5.99933 4.47064 6.08063 4.16866 6.97489C3.55307 8.71695 2.57743 11.7946 2.06639 13.676C1.56695 15.5226 2.11284 17.1717 3.69245 18.5654C4.02928 18.8673 6.63098 21.2482 7.46725 21.9914C7.46725 21.1088 7.75761 20.0055 8.59388 18.7048L9.61598 19.6106C8.83779 20.8881 8.62872 22.0379 9.00039 22.9786C9.30238 23.7335 9.98765 24.291 10.8471 24.4768C11.2653 24.5697 12.2409 24.5116 13.0075 24.4419C13.0307 24.0819 13.0656 23.5709 13.112 22.967L10.8936 23.1528C11.3814 22.6186 11.9738 21.2482 11.9854 19.9823H13.3443C13.3443 20.5281 13.263 21.074 13.1236 21.6082L16.4803 21.3411L16.5616 22.305L18.3735 22.1424C18.3735 22.1192 18.3619 22.0843 18.3619 22.0611C17.4211 21.585 16.3758 20.1797 16.8636 18.0892H18.2806C17.9554 18.8906 18.0018 20.2726 18.9426 20.8301C19.5001 21.1669 20.3596 21.3411 21.1494 21.5037C22.52 21.794 24.0647 22.1192 24.3783 23.5593C24.5758 24.5 24.1809 25.8356 23.8441 26.7415H25.3424C25.505 25.0226 26.3645 22.3515 26.5038 21.9334ZM8.97717 7.27684C9.74374 7.242 10.1154 6.74261 10.0922 6.0574C9.32561 6.08063 8.94232 6.59163 8.97717 7.27684ZM5.21398 5.95288C5.17914 6.74261 5.6205 7.33491 6.50322 7.36975C6.52645 6.58002 6.09671 5.98772 5.21398 5.95288Z" fill="#243B7A"/>
</g>
<defs>
<clipPath id="clip0_21_117">
<rect width="28.34" height="28" fill="white" transform="translate(0.300781 0.280273)"/>
</clipPath>
</defs>
</svg>
