<svg width="38" height="31" viewBox="0 0 38 31" fill="none" xmlns="http://www.w3.org/2000/svg">
<g clip-path="url(#clip0_21_738)">
<path d="M37.0497 4.35256C35.6674 4.96477 34.2013 5.36686 32.7001 5.54551C34.2837 4.59971 35.4693 3.11018 36.0358 1.35468C34.5486 2.23674 32.9217 2.85832 31.2253 3.19261C30.0833 1.97811 28.5729 1.17389 26.9278 0.904407C25.2828 0.634924 23.5947 0.915205 22.125 1.70187C20.6553 2.48854 19.4858 3.73773 18.7975 5.25612C18.1093 6.7745 17.9406 8.47742 18.3177 10.1013C15.3067 9.95065 12.361 9.16831 9.67204 7.80511C6.98303 6.44191 4.61079 4.52833 2.70937 2.18865C1.73997 3.85603 1.44273 5.83031 1.8782 7.70924C2.31367 9.58817 3.44909 11.2304 5.05312 12.3012C3.85015 12.2643 2.6735 11.9399 1.62149 11.3553V11.4503C1.62288 13.1983 2.22863 14.8921 3.33607 16.2446C4.4435 17.597 5.98449 18.5249 7.69783 18.871C6.58199 19.1737 5.41191 19.2185 4.2762 19.002C4.76067 20.5065 5.70295 21.8222 6.97142 22.7652C8.23988 23.7082 9.77119 24.2314 11.3514 24.2618C8.67056 26.3657 5.36023 27.5071 1.95245 27.5026C1.34671 27.5039 0.741418 27.4699 0.139648 27.4006C3.60236 29.6247 7.63203 30.805 11.7474 30.8005C25.6759 30.8005 33.2941 19.26 33.2941 9.25236C33.2941 8.92437 33.2864 8.59739 33.2711 8.2714C34.7534 7.2 36.0329 5.87297 37.0497 4.35256Z" fill="white"/>
</g>
<defs>
<clipPath id="clip0_21_738">
<rect width="36.91" height="30" fill="white" transform="translate(0.139648 0.800781)"/>
</clipPath>
</defs>
</svg>
