<svg width="31" height="31" viewBox="0 0 31 31" fill="none" xmlns="http://www.w3.org/2000/svg">
<g clip-path="url(#clip0_21_727)">
<path d="M28.3806 0.801927H2.81461C2.23447 0.794721 1.67523 1.01822 1.25985 1.42328C0.844479 1.82834 0.606989 2.38179 0.599609 2.96193L0.599609 28.6379C0.606729 29.2185 0.844007 29.7725 1.25932 30.1783C1.67464 30.584 2.23402 30.8083 2.81461 30.8019H28.3806C28.9612 30.807 29.5202 30.5824 29.9359 30.177C30.3516 29.7717 30.5901 29.2184 30.5996 28.6379V2.96193C30.5912 2.38143 30.3528 1.82799 29.9368 1.42304C29.5208 1.01809 28.9611 0.794715 28.3806 0.801927Z" fill="white"/>
<path d="M5.04736 12.0477H9.49936V26.3647H5.04736V12.0477ZM7.27336 4.93066C7.78364 4.93066 8.28245 5.08198 8.70673 5.36547C9.13101 5.64897 9.4617 6.05191 9.65697 6.52334C9.85224 6.99477 9.90334 7.51353 9.80379 8.014C9.70424 8.51447 9.45851 8.97418 9.0977 9.335C8.73688 9.69582 8.27716 9.94154 7.77669 10.0411C7.27622 10.1406 6.75747 10.0895 6.28604 9.89427C5.8146 9.699 5.41166 9.36831 5.12817 8.94404C4.84467 8.51976 4.69336 8.02094 4.69336 7.51066C4.69336 6.82641 4.96518 6.17017 5.44902 5.68633C5.93287 5.20248 6.5891 4.93066 7.27336 4.93066Z" fill="#012169"/>
<path d="M12.2881 12.0476H16.5561V14.0016H16.6161C17.0437 13.2721 17.6609 12.672 18.4021 12.2651C19.1434 11.8582 19.981 11.6597 20.8261 11.6906C25.3321 11.6906 26.1641 14.6556 26.1641 18.5106V26.3626H21.7171V19.4016C21.7171 17.7436 21.6861 15.6066 19.4031 15.6066C17.0891 15.6066 16.7341 17.4156 16.7341 19.2826V26.3646H12.2881V12.0476Z" fill="#012169"/>
</g>
<defs>
<clipPath id="clip0_21_727">
<rect width="30" height="30" fill="white" transform="translate(0.599609 0.800781)"/>
</clipPath>
</defs>
</svg>
