<svg width="31" height="31" viewBox="0 0 31 31" fill="none" xmlns="http://www.w3.org/2000/svg">
<g clip-path="url(#clip0_21_741)">
<path fill-rule="evenodd" clip-rule="evenodd" d="M4.39793 5.2431C11.5223 4.80178 18.6671 4.80178 25.7915 5.2431C26.822 5.31171 27.7926 5.7519 28.523 6.48193C29.2535 7.21195 29.6942 8.18222 29.7633 9.21258C30.2026 13.3721 30.2026 17.5663 29.7633 21.7258C29.6936 22.7561 29.2528 23.7263 28.5225 24.4565C27.7922 25.1868 26.8219 25.6276 25.7915 25.6973C18.6672 26.1419 11.5222 26.1419 4.39793 25.6973C3.36596 25.6323 2.39323 25.1928 1.66244 24.4613C0.931652 23.7298 0.493088 22.7567 0.429122 21.7248C-0.0102281 17.5653 -0.0102281 13.3711 0.429122 9.21158C0.496955 8.18137 0.936874 7.21091 1.66698 6.48086C2.39709 5.75081 3.36763 5.31093 4.39793 5.2431Z" fill="white"/>
<path fill-rule="evenodd" clip-rule="evenodd" d="M12.0078 11.1963L20.0007 15.3857L12.0078 19.5211V11.1963Z" fill="#012169"/>
</g>
<defs>
<clipPath id="clip0_21_741">
<rect width="29.99" height="30" fill="white" transform="translate(0.0996094 0.800781)"/>
</clipPath>
</defs>
</svg>
