<svg width="19" height="27" viewBox="0 0 19 27" fill="none" xmlns="http://www.w3.org/2000/svg">
<g clip-path="url(#clip0_21_263)">
<path d="M9.59689 4.38089C8.75407 4.38115 7.93026 4.63134 7.22964 5.09982C6.52902 5.56831 5.98307 6.23404 5.66083 7.01283C5.33859 7.79161 5.25454 8.64847 5.4193 9.47502C5.58407 10.3016 5.99025 11.0607 6.58648 11.6564C7.18271 12.2521 7.9422 12.6576 8.76891 12.8216C9.59561 12.9857 10.4524 12.9008 11.2309 12.5779C12.0094 12.255 12.6746 11.7084 13.1425 11.0074C13.6103 10.3064 13.8598 9.48232 13.8593 8.6395C13.8594 8.0799 13.7492 7.52577 13.535 7.00879C13.3208 6.49182 13.0068 6.02214 12.6109 5.62662C12.215 5.2311 11.7451 4.91749 11.2279 4.70374C10.7107 4.48999 10.1565 4.38028 9.59689 4.38089ZM9.61104 26.5613C9.61104 26.5613 0.600098 13.9201 0.600098 9.63965C0.600098 7.2527 1.54831 4.96351 3.23614 3.27569C4.92396 1.58786 7.21315 0.639648 9.6001 0.639648C11.987 0.639648 14.2762 1.58786 15.9641 3.27569C17.6519 4.96351 18.6001 7.2527 18.6001 9.63965C18.6001 15.4358 9.61056 26.5613 9.61056 26.5613" fill="white"/>
</g>
<defs>
<clipPath id="clip0_21_263">
<rect width="18" height="26" fill="white" transform="translate(0.600098 0.600586)"/>
</clipPath>
</defs>
</svg>
