<svg width="31" height="31" viewBox="0 0 31 31" fill="none" xmlns="http://www.w3.org/2000/svg">
<g clip-path="url(#clip0_21_733)">
<path d="M30.0996 15.8008C30.0996 18.7675 29.2199 21.6676 27.5717 24.1343C25.9234 26.6011 23.5808 28.5237 20.8399 29.659C18.099 30.7943 15.083 31.0913 12.1733 30.5126C9.26355 29.9338 6.5908 28.5052 4.49301 26.4074C2.39523 24.3096 0.966615 21.6369 0.387837 18.7271C-0.190941 15.8174 0.106109 12.8014 1.24142 10.0605C2.37674 7.31964 4.29933 4.97696 6.76606 3.32874C9.2328 1.68052 12.1329 0.800781 15.0996 0.800781C19.0779 0.800781 22.8932 2.38113 25.7062 5.19418C28.5193 8.00723 30.0996 11.8225 30.0996 15.8008Z" fill="white"/>
<path d="M15.0811 2.46484C11.9731 2.46438 8.96247 3.5496 6.56951 5.533C4.17656 7.51639 2.55158 10.2734 1.97535 13.3276C1.39912 16.3817 1.90783 19.5413 3.41359 22.2602C4.91935 24.9792 7.32757 27.0868 10.2221 28.2188C10.0452 26.9485 10.0604 25.6587 10.2671 24.3928C10.5091 23.3528 11.8311 17.7638 11.8311 17.7638C11.559 17.14 11.4227 16.4654 11.4311 15.7848C11.4311 13.9288 12.5071 12.5458 13.8451 12.5458C14.0844 12.5422 14.3216 12.5899 14.5409 12.6856C14.7601 12.7814 14.9563 12.923 15.1163 13.1009C15.2762 13.2789 15.3962 13.489 15.4681 13.7172C15.54 13.9454 15.5622 14.1864 15.5331 14.4238C15.5331 15.5678 14.8041 17.2788 14.4271 18.8638C14.3527 19.1575 14.3481 19.4645 14.4138 19.7603C14.4795 20.056 14.6136 20.3322 14.8053 20.5668C14.9971 20.8013 15.2412 20.9876 15.518 21.1108C15.7947 21.2339 16.0965 21.2904 16.3991 21.2758C18.7701 21.2758 20.5921 18.7758 20.5921 15.1688C20.6158 14.4376 20.4867 13.7094 20.2132 13.0308C19.9397 12.3522 19.5278 11.738 19.0037 11.2275C18.4797 10.717 17.8549 10.3213 17.1694 10.0656C16.4838 9.81001 15.7525 9.70008 15.0221 9.74284C14.242 9.70888 13.4631 9.83356 12.7326 10.1093C12.0021 10.3851 11.3351 10.8062 10.772 11.3472C10.209 11.8882 9.76154 12.5379 9.4568 13.2568C9.15207 13.9757 8.99637 14.749 8.99914 15.5298C9.00303 16.6243 9.35306 17.6894 9.99914 18.5728C10.0462 18.6233 10.0794 18.6851 10.0956 18.7522C10.1117 18.8193 10.1102 18.8895 10.0911 18.9558C9.99114 19.3778 9.76514 20.2828 9.72214 20.4688C9.66414 20.7128 9.52914 20.7688 9.27514 20.6478C7.60914 19.8728 6.56814 17.4368 6.56814 15.4818C6.56814 11.2748 9.62514 7.41184 15.3811 7.41184C20.0081 7.41184 23.6021 10.7118 23.6021 15.1118C23.6021 19.7118 20.7021 23.4068 16.6821 23.4068C16.0852 23.428 15.4924 23.2988 14.9583 23.0313C14.4242 22.7638 13.9658 22.3665 13.6251 21.8758C13.6251 21.8758 12.9571 24.4228 12.7951 25.0458C12.3979 26.28 11.8404 27.4567 11.1371 28.5458C12.9709 29.1117 14.9052 29.2752 16.8079 29.0251C18.7106 28.775 20.5369 28.1173 22.1621 27.0967C23.7873 26.0762 25.1732 24.717 26.225 23.1119C27.2769 21.5067 27.9699 19.6935 28.2569 17.796C28.5438 15.8985 28.4179 13.9614 27.8877 12.1171C27.3575 10.2727 26.4355 8.56446 25.1847 7.10903C23.9339 5.65359 22.3837 4.48523 20.64 3.68373C18.8963 2.88223 17.0002 2.46647 15.0811 2.46484Z" fill="#012169"/>
</g>
<defs>
<clipPath id="clip0_21_733">
<rect width="30" height="30" fill="white" transform="translate(0.0996094 0.800781)"/>
</clipPath>
</defs>
</svg>
