<svg width="21" height="21" viewBox="0 0 21 21" fill="none" xmlns="http://www.w3.org/2000/svg">
<g clip-path="url(#clip0_21_268)">
<path d="M20.6001 0.758789H0.600098V20.041H20.6001V0.758789Z" fill="white"/>
<path d="M19.2861 5.91504H1.91357V18.7281H19.2861V5.91504Z" fill="#0052C2"/>
<path d="M4.1861 2.17871C4.41548 2.17871 4.6397 2.24673 4.83042 2.37417C5.02114 2.50161 5.16979 2.68274 5.25756 2.89466C5.34534 3.10657 5.3683 3.33976 5.32354 3.56473C5.27878 3.7897 5.16832 3.99634 5.00612 4.15853C4.84392 4.32072 4.63727 4.43117 4.41229 4.4759C4.18732 4.52064 3.95413 4.49766 3.74222 4.40987C3.53031 4.32208 3.34919 4.17342 3.22177 3.98269C3.09435 3.79196 3.02635 3.56772 3.02637 3.33835C3.02655 3.03083 3.14879 2.73596 3.36625 2.51852C3.5837 2.30109 3.87858 2.17886 4.1861 2.17871Z" fill="#0052C2"/>
<path d="M17.0152 2.17881C17.2446 2.17881 17.4688 2.24683 17.6595 2.37426C17.8502 2.5017 17.9989 2.68283 18.0867 2.89475C18.1744 3.10667 18.1974 3.33986 18.1526 3.56483C18.1079 3.7898 17.9974 3.99644 17.8352 4.15863C17.673 4.32082 17.4664 4.43126 17.2414 4.476C17.0164 4.52074 16.7832 4.49776 16.5713 4.40997C16.3594 4.32217 16.1783 4.17351 16.0509 3.98278C15.9235 3.79205 15.8554 3.56782 15.8555 3.33844C15.8557 3.03093 15.9779 2.73606 16.1954 2.51861C16.4128 2.30117 16.7077 2.17892 17.0152 2.17871V2.17881Z" fill="#0052C2"/>
<path d="M9.00216 11.8557C10.0688 12.0866 10.451 12.8826 10.451 13.645C10.451 14.8507 9.45612 15.8366 7.78631 15.8366C7.06238 15.8366 6.12741 15.7161 5.45312 15.3039L5.85541 14.2584C6.83018 14.6794 7.31312 14.7005 7.60366 14.7005C8.59079 14.7005 8.95212 14.1479 8.96207 13.7257C8.98197 12.8317 8.28905 12.52 7.00133 12.4894V11.5346C8.32874 11.4936 8.69008 10.9609 8.69008 10.4878C8.69008 10.1464 8.43799 9.8459 7.88666 9.8459C7.58492 9.8459 7.02249 9.8658 6.02531 10.3997L5.63413 9.38402C6.44866 8.91962 7.30298 8.69824 7.9251 8.69824C9.48471 8.69824 10.1477 9.50282 10.1477 10.3683C10.1477 10.8203 9.87821 11.5145 9.00158 11.8261V11.8559L9.00216 11.8557Z" fill="white"/>
<path d="M13.589 10.1065L12.1821 10.2369V9.28076L13.7182 8.83008H14.9958V15.7463H13.589V10.1065Z" fill="white"/>
</g>
<defs>
<clipPath id="clip0_21_268">
<rect width="20" height="20" fill="white" transform="translate(0.600098 0.400391)"/>
</clipPath>
</defs>
</svg>
