<svg width="31" height="31" viewBox="0 0 31 31" fill="none" xmlns="http://www.w3.org/2000/svg">
<g clip-path="url(#clip0_21_719)">
<path d="M28.4451 0.800781H1.7561C1.3169 0.800781 0.895689 0.975252 0.585129 1.28581C0.274569 1.59637 0.100098 2.01758 0.100098 2.45678V29.1448C0.0999665 29.3623 0.14271 29.5777 0.225886 29.7787C0.309061 29.9796 0.431036 30.1622 0.584836 30.316C0.738636 30.4698 0.921244 30.5918 1.12222 30.675C1.32319 30.7582 1.53859 30.8009 1.7561 30.8008H28.4451C28.6625 30.8008 28.8778 30.7579 29.0787 30.6747C29.2795 30.5915 29.462 30.4695 29.6157 30.3157C29.7694 30.1619 29.8913 29.9793 29.9744 29.7784C30.0575 29.5775 30.1002 29.3622 30.1001 29.1448V2.45678C30.1001 2.01776 29.9258 1.5967 29.6154 1.28617C29.3051 0.975634 28.8841 0.801046 28.4451 0.800781Z" fill="white"/>
<path d="M24.7003 19.1842L25.2843 14.6572H20.8003V11.7662C20.8003 10.4552 21.1643 9.56122 23.0443 9.56122H25.4443V5.51022C24.2844 5.38765 23.1187 5.32823 21.9523 5.33222C18.4953 5.33222 16.1283 7.44122 16.1283 11.3162V14.6562H12.2153V19.1832H16.1233V30.8012H20.8003V19.1842H24.7003Z" fill="#012169"/>
</g>
<defs>
<clipPath id="clip0_21_719">
<rect width="30" height="30" fill="white" transform="translate(0.100098 0.800781)"/>
</clipPath>
</defs>
</svg>
