<svg width="31" height="31" viewBox="0 0 31 31" fill="none" xmlns="http://www.w3.org/2000/svg">
<g clip-path="url(#clip0_21_724)">
<path fill-rule="evenodd" clip-rule="evenodd" d="M26.6391 13.4908H24.0271C24.3859 14.8564 24.4266 16.2862 24.1461 17.67C23.8656 19.0538 23.2714 20.3549 22.4091 21.473C21.5468 22.5911 20.4395 23.4964 19.1724 24.1194C17.9052 24.7424 16.5121 25.0663 15.1001 25.0663C13.6881 25.0663 12.295 24.7424 11.0278 24.1194C9.76071 23.4964 8.6534 22.5911 7.79112 21.473C6.92884 20.3549 6.33458 19.0538 6.05407 17.67C5.77356 16.2862 5.81428 14.8564 6.1731 13.4908H3.5611V26.1908C3.56163 26.4965 3.68344 26.7895 3.8998 27.0055C4.11616 27.2215 4.40938 27.3428 4.7151 27.3428H25.4841C25.79 27.343 26.0835 27.2219 26.3 27.0058C26.5166 26.7898 26.6386 26.4967 26.6391 26.1908V13.4908ZM26.6391 5.41578C26.6391 5.2642 26.6092 5.1141 26.5511 4.97408C26.4931 4.83407 26.408 4.70687 26.3007 4.59978C26.1934 4.49269 26.0661 4.4078 25.9259 4.34997C25.7858 4.29215 25.6357 4.26252 25.4841 4.26278H22.0231C21.7175 4.26278 21.4244 4.38412 21.2082 4.60013C20.992 4.81615 20.8704 5.10916 20.8701 5.41478V8.87678C20.8701 9.18267 20.9915 9.47604 21.2077 9.69243C21.4239 9.90882 21.7172 10.0305 22.0231 10.0308H25.4841C25.6356 10.0309 25.7857 10.0012 25.9258 9.94332C26.0659 9.88545 26.1931 9.80056 26.3004 9.69349C26.4076 9.58642 26.4928 9.45928 26.5509 9.31932C26.609 9.17936 26.639 9.02933 26.6391 8.87778V5.41578ZM15.1001 10.0308C13.9589 10.0308 12.8433 10.3692 11.8945 11.0032C10.9456 11.6372 10.206 12.5384 9.76931 13.5927C9.33259 14.647 9.21833 15.8072 9.44097 16.9265C9.6636 18.0457 10.2131 19.0738 11.0201 19.8808C11.827 20.6877 12.8552 21.2373 13.9744 21.4599C15.0937 21.6826 16.2539 21.5683 17.3082 21.1316C18.3625 20.6948 19.2637 19.9553 19.8977 19.0064C20.5317 18.0576 20.8701 16.942 20.8701 15.8008C20.8702 15.043 20.7211 14.2927 20.4312 13.5925C20.1412 12.8924 19.7162 12.2563 19.1804 11.7205C18.6446 11.1847 18.0084 10.7597 17.3083 10.4697C16.6082 10.1798 15.8579 10.0306 15.1001 10.0308ZM26.6391 30.8008H3.5611C3.10646 30.8006 2.6563 30.711 2.23632 30.5369C1.81634 30.3628 1.43477 30.1076 1.11339 29.7861C0.792003 29.4645 0.537105 29.0828 0.363244 28.6627C0.189384 28.2426 0.0999665 27.7924 0.100098 27.3378V4.26178C0.100098 3.34387 0.464738 2.46355 1.1138 1.81448C1.76286 1.16542 2.64318 0.800781 3.5611 0.800781L26.6391 0.800781C27.557 0.800781 28.4373 1.16542 29.0864 1.81448C29.7355 2.46355 30.1001 3.34387 30.1001 4.26178V27.3378C30.1002 27.7924 30.0108 28.2426 29.837 28.6627C29.6631 29.0828 29.4082 29.4645 29.0868 29.7861C28.7654 30.1076 28.3839 30.3628 27.9639 30.5369C27.5439 30.711 27.0937 30.8006 26.6391 30.8008Z" fill="white"/>
</g>
<defs>
<clipPath id="clip0_21_724">
<rect width="30" height="30" fill="white" transform="translate(0.100098 0.800781)"/>
</clipPath>
</defs>
</svg>
